<svg id="Слой_1" data-name="Слой 1" xmlns="http://www.w3.org/2000/svg" xmlns:xlink="http://www.w3.org/1999/xlink" viewBox="0 0 800 800"><defs><linearGradient id="Безымянный_градиент_103" x1="134.56" y1="399.79" x2="666.21" y2="399.79" gradientUnits="userSpaceOnUse"><stop offset="0" stop-color="#212121"/><stop offset="0.01" stop-color="#232225"/><stop offset="0.2" stop-color="#412d61"/><stop offset="0.38" stop-color="#7e2351"/><stop offset="0.58" stop-color="#bc1941"/><stop offset="0.68" stop-color="#d4153b"/><stop offset="0.76" stop-color="#d4214a"/><stop offset="1" stop-color="#d44375"/></linearGradient><clipPath id="clip-path"><path d="M161.45,428.86l-25.16-25.44a6,6,0,0,1,0-8.43l99.16-99.16a6,6,0,0,1,8.45,0l35.54,35.54a6,6,0,0,1-.45,8.86L169.47,429.29A6,6,0,0,1,161.45,428.86ZM307,316.62l108.92-89.36a6,6,0,0,0,.43-8.85l-47.5-47.5a6,6,0,0,0-8.45,0L261.25,270a6,6,0,0,0,0,8.45L299,316.22A6,6,0,0,0,307,316.62Zm74.13-158,49.73,49.73a6,6,0,0,0,7.94.46l16.34-13a6,6,0,0,0,.51-8.91l-51.41-51.41a6,6,0,0,0-8.45,0l-14.66,14.66A6,6,0,0,0,381.12,158.63ZM357.4,307.15l-170.47,139a6,6,0,0,0-.45,8.86l42.59,42.59a6,6,0,0,0,8,.41L407.55,359a6,6,0,0,0,.45-8.86L365.4,307.55A6,6,0,0,0,357.4,307.15Zm36.05-20.65,42,42a6,6,0,0,0,8,.43l80.15-64.7a6,6,0,0,0,.47-8.88l-42.55-42.55a6,6,0,0,0-8-.39l-79.55,65.29A6,6,0,0,0,393.45,286.5Zm14.73,235.89L538.49,381.9a6,6,0,0,0-.16-8.29L488.5,323.78a6,6,0,0,0-8-.41l-149,121.52a6,6,0,0,0-.46,8.85l68.52,68.81A6,6,0,0,0,408.18,522.39Zm-102.47-56-53.86,44.8a6,6,0,0,0-.41,8.82l78.7,78.86a6,6,0,0,0,8.7-.26L385.37,546a6,6,0,0,0-.26-8.19l-71.36-71.09A6,6,0,0,0,305.72,466.38ZM558.45,362.09l30.49-33.85a6,6,0,0,0-.22-8.22L546,277.26a6,6,0,0,0-8-.41l-35.45,28.88a6,6,0,0,0-.45,8.86l47.72,47.72A6,6,0,0,0,558.45,362.09Zm-154.14,302,99.16-99.16a6,6,0,0,0,0-8.45l-47.62-47.62a6,6,0,0,0-8.6.16L351.6,612a6,6,0,0,0,.17,8.31l44.1,43.8A6,6,0,0,0,404.31,664.06Zm69.25-173.61,48,48a6,6,0,0,0,8.45,0l99.13-99.13a6,6,0,0,0,0-8.46l-52.39-52.08a6,6,0,0,0-8.62.2L473.38,482.18A6,6,0,0,0,473.56,490.45ZM602,342.47l-16.48,18.27a6,6,0,0,0,.21,8.23l52.8,52.8a6,6,0,0,0,8.45,0l17.53-17.53a6,6,0,0,0,0-8.46L610.6,342.24A6,6,0,0,0,602,342.47Z" style="fill:url(#Безымянный_градиент_103)"/></clipPath><linearGradient id="Безымянный_градиент_103-3" x1="4824.36" y1="-138.04" x2="5204.36" y2="-518.04" gradientTransform="translate(-4614.36 728.04)" xlink:href="#Безымянный_градиент_103"/></defs><title>logo_image</title><path d="M161.45,428.86l-25.16-25.44a6,6,0,0,1,0-8.43l99.16-99.16a6,6,0,0,1,8.45,0l35.54,35.54a6,6,0,0,1-.45,8.86L169.47,429.29A6,6,0,0,1,161.45,428.86ZM307,316.62l108.92-89.36a6,6,0,0,0,.43-8.85l-47.5-47.5a6,6,0,0,0-8.45,0L261.25,270a6,6,0,0,0,0,8.45L299,316.22A6,6,0,0,0,307,316.62Zm74.13-158,49.73,49.73a6,6,0,0,0,7.94.46l16.34-13a6,6,0,0,0,.51-8.91l-51.41-51.41a6,6,0,0,0-8.45,0l-14.66,14.66A6,6,0,0,0,381.12,158.63ZM357.4,307.15l-170.47,139a6,6,0,0,0-.45,8.86l42.59,42.59a6,6,0,0,0,8,.41L407.55,359a6,6,0,0,0,.45-8.86L365.4,307.55A6,6,0,0,0,357.4,307.15Zm36.05-20.65,42,42a6,6,0,0,0,8,.43l80.15-64.7a6,6,0,0,0,.47-8.88l-42.55-42.55a6,6,0,0,0-8-.39l-79.55,65.29A6,6,0,0,0,393.45,286.5Zm14.73,235.89L538.49,381.9a6,6,0,0,0-.16-8.29L488.5,323.78a6,6,0,0,0-8-.41l-149,121.52a6,6,0,0,0-.46,8.85l68.52,68.81A6,6,0,0,0,408.18,522.39Zm-102.47-56-53.86,44.8a6,6,0,0,0-.41,8.82l78.7,78.86a6,6,0,0,0,8.7-.26L385.37,546a6,6,0,0,0-.26-8.19l-71.36-71.09A6,6,0,0,0,305.72,466.38ZM558.45,362.09l30.49-33.85a6,6,0,0,0-.22-8.22L546,277.26a6,6,0,0,0-8-.41l-35.45,28.88a6,6,0,0,0-.45,8.86l47.72,47.72A6,6,0,0,0,558.45,362.09Zm-154.14,302,99.16-99.16a6,6,0,0,0,0-8.45l-47.62-47.62a6,6,0,0,0-8.6.16L351.6,612a6,6,0,0,0,.17,8.31l44.1,43.8A6,6,0,0,0,404.31,664.06Zm69.25-173.61,48,48a6,6,0,0,0,8.45,0l99.13-99.13a6,6,0,0,0,0-8.46l-52.39-52.08a6,6,0,0,0-8.62.2L473.38,482.18A6,6,0,0,0,473.56,490.45ZM602,342.47l-16.48,18.27a6,6,0,0,0,.21,8.23l52.8,52.8a6,6,0,0,0,8.45,0l17.53-17.53a6,6,0,0,0,0-8.46L610.6,342.24A6,6,0,0,0,602,342.47Z" style="fill:url(#Безымянный_градиент_103)"/><g style="clip-path:url(#clip-path)"><rect x="210" y="210" width="380" height="380" transform="translate(-165.69 400) rotate(-45)" style="fill:url(#Безымянный_градиент_103-3)"/></g></svg>