<svg xmlns="http://www.w3.org/2000/svg" xmlns:xlink="http://www.w3.org/1999/xlink" viewBox="0 0 812 800"><defs><clipPath id="clip-path"><path d="M167.07,429.07,141.9,403.63a6,6,0,0,1,0-8.43L241.09,296a6,6,0,0,1,8.45,0l35.54,35.54a6,6,0,0,1-.45,8.86L175.08,429.5A6,6,0,0,1,167.07,429.07ZM312.61,316.82l108.92-89.36a6,6,0,0,0,.43-8.85l-47.5-47.5a6,6,0,0,0-8.45,0l-99.14,99.14a6,6,0,0,0,0,8.45l37.72,37.72A6,6,0,0,0,312.61,316.82Zm74.13-158,49.73,49.73a6,6,0,0,0,7.94.46l16.34-13a6,6,0,0,0,.51-8.91l-51.41-51.41a6,6,0,0,0-8.45,0l-14.66,14.66A6,6,0,0,0,386.73,158.84ZM363,307.35l-170.47,139a6,6,0,0,0-.45,8.86l42.59,42.59a6,6,0,0,0,8,.41l170.47-139a6,6,0,0,0,.45-8.86L371,307.76A6,6,0,0,0,363,307.35Zm36.05-20.65,42,42a6,6,0,0,0,8,.43l80.15-64.7a6,6,0,0,0,.47-8.88L487.07,213a6,6,0,0,0-8-.39L399.5,277.86A6,6,0,0,0,399.07,286.71ZM413.8,522.6,544.1,382.11a6,6,0,0,0-.16-8.29L494.12,324a6,6,0,0,0-8-.41l-149,121.52a6,6,0,0,0-.46,8.85l68.52,68.81A6,6,0,0,0,413.8,522.6Zm-102.47-56-53.86,44.8a6,6,0,0,0-.41,8.82l78.7,78.86a6,6,0,0,0,8.7-.26L391,546.23a6,6,0,0,0-.26-8.19l-71.36-71.09A6,6,0,0,0,311.33,466.59ZM564.06,362.3l30.49-33.85a6,6,0,0,0-.22-8.22l-42.75-42.75a6,6,0,0,0-8-.41l-35.45,28.88a6,6,0,0,0-.45,8.86l47.72,47.72A6,6,0,0,0,564.06,362.3Zm-154.14,302,99.16-99.16a6,6,0,0,0,0-8.45L461.46,509a6,6,0,0,0-8.6.16l-95.64,103a6,6,0,0,0,.17,8.31l44.1,43.8A6,6,0,0,0,409.92,664.27Zm69.25-173.61,48,48a6,6,0,0,0,8.45,0l99.13-99.13a6,6,0,0,0,0-8.46l-52.39-52.08a6,6,0,0,0-8.62.2L479,482.39A6,6,0,0,0,479.18,490.65Zm128.39-148L591.08,361a6,6,0,0,0,.21,8.23l52.8,52.8a6,6,0,0,0,8.45,0l17.53-17.53a6,6,0,0,0,0-8.46l-53.85-53.54A6,6,0,0,0,607.57,342.68Z" style="fill:none;stroke:#fff;stroke-miterlimit:10;stroke-width:4px"/></clipPath><linearGradient id="Безымянный_градиент_103" x1="405.61" y1="668.91" x2="405.61" y2="131.51" gradientTransform="translate(401.79 -169.59) rotate(45)" gradientUnits="userSpaceOnUse"><stop offset="0" stop-color="#212121"/><stop offset="0.01" stop-color="#232225"/><stop offset="0.2" stop-color="#412d61"/><stop offset="0.38" stop-color="#7e2351"/><stop offset="0.58" stop-color="#bc1941"/><stop offset="0.68" stop-color="#d4153b"/><stop offset="0.76" stop-color="#d4214a"/><stop offset="1" stop-color="#d44375"/></linearGradient></defs><title>logo_image_dark</title><g id="Слой_8" data-name="Слой 8"><g style="clip-path:url(#clip-path)"><rect x="215.61" y="210.21" width="380" height="380" transform="translate(-164.19 404.03) rotate(-45)" style="stroke:#fff;stroke-miterlimit:10;stroke-width:4px;fill:url(#Безымянный_градиент_103)"/></g><path d="M167.07,429.07,141.9,403.63a6,6,0,0,1,0-8.43L241.09,296a6,6,0,0,1,8.45,0l35.54,35.54a6,6,0,0,1-.45,8.86L175.08,429.5A6,6,0,0,1,167.07,429.07ZM312.61,316.82l108.92-89.36a6,6,0,0,0,.43-8.85l-47.5-47.5a6,6,0,0,0-8.45,0l-99.14,99.14a6,6,0,0,0,0,8.45l37.72,37.72A6,6,0,0,0,312.61,316.82Zm74.13-158,49.73,49.73a6,6,0,0,0,7.94.46l16.34-13a6,6,0,0,0,.51-8.91l-51.41-51.41a6,6,0,0,0-8.45,0l-14.66,14.66A6,6,0,0,0,386.73,158.84ZM363,307.35l-170.47,139a6,6,0,0,0-.45,8.86l42.59,42.59a6,6,0,0,0,8,.41l170.47-139a6,6,0,0,0,.45-8.86L371,307.76A6,6,0,0,0,363,307.35Zm36.05-20.65,42,42a6,6,0,0,0,8,.43l80.15-64.7a6,6,0,0,0,.47-8.88L487.07,213a6,6,0,0,0-8-.39L399.5,277.86A6,6,0,0,0,399.07,286.71ZM413.8,522.6,544.1,382.11a6,6,0,0,0-.16-8.29L494.12,324a6,6,0,0,0-8-.41l-149,121.52a6,6,0,0,0-.46,8.85l68.52,68.81A6,6,0,0,0,413.8,522.6Zm-102.47-56-53.86,44.8a6,6,0,0,0-.41,8.82l78.7,78.86a6,6,0,0,0,8.7-.26L391,546.23a6,6,0,0,0-.26-8.19l-71.36-71.09A6,6,0,0,0,311.33,466.59ZM564.06,362.3l30.49-33.85a6,6,0,0,0-.22-8.22l-42.75-42.75a6,6,0,0,0-8-.41l-35.45,28.88a6,6,0,0,0-.45,8.86l47.72,47.72A6,6,0,0,0,564.06,362.3Zm-154.14,302,99.16-99.16a6,6,0,0,0,0-8.45L461.46,509a6,6,0,0,0-8.6.16l-95.64,103a6,6,0,0,0,.17,8.31l44.1,43.8A6,6,0,0,0,409.92,664.27Zm69.25-173.61,48,48a6,6,0,0,0,8.45,0l99.13-99.13a6,6,0,0,0,0-8.46l-52.39-52.08a6,6,0,0,0-8.62.2L479,482.39A6,6,0,0,0,479.18,490.65Zm128.39-148L591.08,361a6,6,0,0,0,.21,8.23l52.8,52.8a6,6,0,0,0,8.45,0l17.53-17.53a6,6,0,0,0,0-8.46l-53.85-53.54A6,6,0,0,0,607.57,342.68Z" style="fill:none;stroke:#fff;stroke-miterlimit:10;stroke-width:4px"/></g></svg>