<svg xmlns="http://www.w3.org/2000/svg" xmlns:xlink="http://www.w3.org/1999/xlink" viewBox="0 0 1512.44 536.03"><defs><linearGradient id="Безымянный_градиент_103" x1="2" y1="268.02" x2="533.65" y2="268.02" gradientUnits="userSpaceOnUse"><stop offset="0" stop-color="#212121"/><stop offset="0.01" stop-color="#232225"/><stop offset="0.2" stop-color="#412d61"/><stop offset="0.38" stop-color="#7e2351"/><stop offset="0.58" stop-color="#bc1941"/><stop offset="0.68" stop-color="#d4153b"/><stop offset="0.76" stop-color="#d4214a"/><stop offset="1" stop-color="#d44375"/></linearGradient><clipPath id="clip-path"><path d="M28.89,297.08,3.73,271.65a6,6,0,0,1,0-8.43l99.16-99.16a6,6,0,0,1,8.45,0l35.54,35.54a6,6,0,0,1-.45,8.86L36.91,297.52A6,6,0,0,1,28.89,297.08ZM174.43,184.84,283.36,95.48a6,6,0,0,0,.43-8.85l-47.5-47.5a6,6,0,0,0-8.45,0l-99.14,99.14a6,6,0,0,0,0,8.45l37.72,37.72A6,6,0,0,0,174.43,184.84Zm74.13-158,49.73,49.73a6,6,0,0,0,7.94.46l16.34-13a6,6,0,0,0,.51-8.91L271.67,3.75a6,6,0,0,0-8.45,0L248.56,18.41A6,6,0,0,0,248.56,26.86ZM224.84,175.37l-170.47,139a6,6,0,0,0-.45,8.86l42.59,42.59a6,6,0,0,0,8,.41L275,227.22a6,6,0,0,0,.45-8.86l-42.59-42.59A6,6,0,0,0,224.84,175.37Zm36.05-20.65,42,42a6,6,0,0,0,8,.43L391,132.41a6,6,0,0,0,.47-8.88L348.9,81a6,6,0,0,0-8-.39l-79.55,65.29A6,6,0,0,0,260.89,154.72Zm14.73,235.89L405.93,250.13a6,6,0,0,0-.16-8.29L355.94,192a6,6,0,0,0-8-.41l-149,121.52a6,6,0,0,0-.46,8.85L267,390.77A6,6,0,0,0,275.63,390.62Zm-102.47-56L119.3,379.4a6,6,0,0,0-.41,8.82l78.7,78.86a6,6,0,0,0,8.7-.26l46.52-52.56a6,6,0,0,0-.26-8.19L181.2,335A6,6,0,0,0,173.16,334.6ZM425.89,230.32l30.49-33.85a6,6,0,0,0-.22-8.22L413.4,145.49a6,6,0,0,0-8-.41L370,174a6,6,0,0,0-.45,8.86l47.72,47.72A6,6,0,0,0,425.89,230.32Zm-154.14,302,99.16-99.16a6,6,0,0,0,0-8.45l-47.62-47.62a6,6,0,0,0-8.6.16L219,480.19a6,6,0,0,0,.17,8.31l44.1,43.8A6,6,0,0,0,271.75,532.28ZM341,358.67l48,48a6,6,0,0,0,8.45,0l99.13-99.13a6,6,0,0,0,0-8.46L444.13,247a6,6,0,0,0-8.62.2L340.82,350.41A6,6,0,0,0,341,358.67Zm128.39-148L452.91,229a6,6,0,0,0,.21,8.23l52.8,52.8a6,6,0,0,0,8.45,0l17.53-17.53a6,6,0,0,0,0-8.46L478,210.46A6,6,0,0,0,469.4,210.7Z" style="stroke:#fff;stroke-miterlimit:10;stroke-width:4px;fill:url(#Безымянный_градиент_103)"/></clipPath><linearGradient id="Безымянный_градиент_103-3" x1="2732.35" y1="-1193.28" x2="3112.35" y2="-1573.28" gradientTransform="translate(-2654.91 1651.51)" xlink:href="#Безымянный_градиент_103"/></defs><title>logo_image_text_dark</title><g id="Слой_6" data-name="Слой 6"><path d="M28.89,297.08,3.73,271.65a6,6,0,0,1,0-8.43l99.16-99.16a6,6,0,0,1,8.45,0l35.54,35.54a6,6,0,0,1-.45,8.86L36.91,297.52A6,6,0,0,1,28.89,297.08ZM174.43,184.84,283.36,95.48a6,6,0,0,0,.43-8.85l-47.5-47.5a6,6,0,0,0-8.45,0l-99.14,99.14a6,6,0,0,0,0,8.45l37.72,37.72A6,6,0,0,0,174.43,184.84Zm74.13-158,49.73,49.73a6,6,0,0,0,7.94.46l16.34-13a6,6,0,0,0,.51-8.91L271.67,3.75a6,6,0,0,0-8.45,0L248.56,18.41A6,6,0,0,0,248.56,26.86ZM224.84,175.37l-170.47,139a6,6,0,0,0-.45,8.86l42.59,42.59a6,6,0,0,0,8,.41L275,227.22a6,6,0,0,0,.45-8.86l-42.59-42.59A6,6,0,0,0,224.84,175.37Zm36.05-20.65,42,42a6,6,0,0,0,8,.43L391,132.41a6,6,0,0,0,.47-8.88L348.9,81a6,6,0,0,0-8-.39l-79.55,65.29A6,6,0,0,0,260.89,154.72Zm14.73,235.89L405.93,250.13a6,6,0,0,0-.16-8.29L355.94,192a6,6,0,0,0-8-.41l-149,121.52a6,6,0,0,0-.46,8.85L267,390.77A6,6,0,0,0,275.63,390.62Zm-102.47-56L119.3,379.4a6,6,0,0,0-.41,8.82l78.7,78.86a6,6,0,0,0,8.7-.26l46.52-52.56a6,6,0,0,0-.26-8.19L181.2,335A6,6,0,0,0,173.16,334.6ZM425.89,230.32l30.49-33.85a6,6,0,0,0-.22-8.22L413.4,145.49a6,6,0,0,0-8-.41L370,174a6,6,0,0,0-.45,8.86l47.72,47.72A6,6,0,0,0,425.89,230.32Zm-154.14,302,99.16-99.16a6,6,0,0,0,0-8.45l-47.62-47.62a6,6,0,0,0-8.6.16L219,480.19a6,6,0,0,0,.17,8.31l44.1,43.8A6,6,0,0,0,271.75,532.28ZM341,358.67l48,48a6,6,0,0,0,8.45,0l99.13-99.13a6,6,0,0,0,0-8.46L444.13,247a6,6,0,0,0-8.62.2L340.82,350.41A6,6,0,0,0,341,358.67Zm128.39-148L452.91,229a6,6,0,0,0,.21,8.23l52.8,52.8a6,6,0,0,0,8.45,0l17.53-17.53a6,6,0,0,0,0-8.46L478,210.46A6,6,0,0,0,469.4,210.7Z" style="fill:url(#Безымянный_градиент_103)"/><g style="clip-path:url(#clip-path)"><rect x="77.44" y="78.23" width="380" height="380" transform="translate(-111.33 267.67) rotate(-45)" style="stroke:#fff;stroke-miterlimit:10;stroke-width:4px;fill:url(#Безымянный_градиент_103-3)"/></g><path d="M28.89,297.08,3.73,271.65a6,6,0,0,1,0-8.43l99.16-99.16a6,6,0,0,1,8.45,0l35.54,35.54a6,6,0,0,1-.45,8.86L36.91,297.52A6,6,0,0,1,28.89,297.08ZM174.43,184.84,283.36,95.48a6,6,0,0,0,.43-8.85l-47.5-47.5a6,6,0,0,0-8.45,0l-99.14,99.14a6,6,0,0,0,0,8.45l37.72,37.72A6,6,0,0,0,174.43,184.84Zm74.13-158,49.73,49.73a6,6,0,0,0,7.94.46l16.34-13a6,6,0,0,0,.51-8.91L271.67,3.75a6,6,0,0,0-8.45,0L248.56,18.41A6,6,0,0,0,248.56,26.86ZM224.84,175.37l-170.47,139a6,6,0,0,0-.45,8.86l42.59,42.59a6,6,0,0,0,8,.41L275,227.22a6,6,0,0,0,.45-8.86l-42.59-42.59A6,6,0,0,0,224.84,175.37Zm36.05-20.65,42,42a6,6,0,0,0,8,.43L391,132.41a6,6,0,0,0,.47-8.88L348.9,81a6,6,0,0,0-8-.39l-79.55,65.29A6,6,0,0,0,260.89,154.72Zm14.73,235.89L405.93,250.13a6,6,0,0,0-.16-8.29L355.94,192a6,6,0,0,0-8-.41l-149,121.52a6,6,0,0,0-.46,8.85L267,390.77A6,6,0,0,0,275.63,390.62Zm-102.47-56L119.3,379.4a6,6,0,0,0-.41,8.82l78.7,78.86a6,6,0,0,0,8.7-.26l46.52-52.56a6,6,0,0,0-.26-8.19L181.2,335A6,6,0,0,0,173.16,334.6ZM425.89,230.32l30.49-33.85a6,6,0,0,0-.22-8.22L413.4,145.49a6,6,0,0,0-8-.41L370,174a6,6,0,0,0-.45,8.86l47.72,47.72A6,6,0,0,0,425.89,230.32Zm-154.14,302,99.16-99.16a6,6,0,0,0,0-8.45l-47.62-47.62a6,6,0,0,0-8.6.16L219,480.19a6,6,0,0,0,.17,8.31l44.1,43.8A6,6,0,0,0,271.75,532.28ZM341,358.67l48,48a6,6,0,0,0,8.45,0l99.13-99.13a6,6,0,0,0,0-8.46L444.13,247a6,6,0,0,0-8.62.2L340.82,350.41A6,6,0,0,0,341,358.67Zm128.39-148L452.91,229a6,6,0,0,0,.21,8.23l52.8,52.8a6,6,0,0,0,8.45,0l17.53-17.53a6,6,0,0,0,0-8.46L478,210.46A6,6,0,0,0,469.4,210.7Z" style="fill:none;stroke:#fff;stroke-miterlimit:10;stroke-width:4px"/><path d="M656.22,302.9c0,8.62,3.12,11.74,11.55,11.74h44.92l.92,14.12c-15.77,1.47-32.46,1.65-48.78,1.65-20.17,0-27-10.64-27-24.94v-102h18.34Z" style="fill:#fff"/><path d="M744.78,202.42c3.48,0,5.13,2,5.13,5.13v10.27c0,3.48-1.65,5.32-5.13,5.32h-8.43c-3.48,0-5.13-1.83-5.13-5.32V207.55c0-3.12,1.65-5.13,5.13-5.13ZM731.76,330V240.56h17.6V330Z" style="fill:#fff"/><path d="M849.3,251.38c2,4,3.12,9.17,3.12,15.59,0,20-9.72,28.6-38.87,28.6a97.89,97.89,0,0,1-17.79-1.47c-3.3,5.13-2.57,12.65,5.68,13.94l33,5.13c17.24,2.57,23.47,10.45,23.47,25.49,0,21.27-10.64,28.05-43.27,28.05-33,0-43.82-6.78-43.82-27.5,0-10.27,4.4-15.22,14.3-20.72-8.8-7-7-21.82,1.28-27.69-8.62-4.4-11.74-12.1-11.74-23.65,0-20.72,9.54-29,39.06-29,8.8,0,15.77.73,21.27,2.38h27.87l-.92,9.53Zm-52.81,71c-5.5,4.58-8.43,8.8-8.43,15.4,0,12.1,5.13,13.94,26.4,13.94,20.9,0,26-2.38,26-13.94,0-8.62-2.75-9.72-15.22-11.55ZM835.91,267c0-11.37-5.5-15.22-22.37-15.22-17.05,0-22.74,3.85-22.74,15.22,0,11,5.68,15.22,22.74,15.22C830.41,282.18,835.91,278,835.91,267Z" style="fill:#fff"/><path d="M898.43,236.34a118.88,118.88,0,0,1-1.28,17.42c13-9.54,26-15.59,39.06-15.59,15.59,0,24.2,8.62,24.2,24.75V330H942.62v-62c0-11.37-2.93-14.85-11.37-14.85-10.08,0-19.25,4.77-33,13.2V330H880.46V201.69h18Z" style="fill:#fff"/><path d="M1038.88,329.31c-5.87,1.65-16.32,2.38-21.09,2.38-15.22,0-23.29-9-23.29-25.12V254.31H978.19V241.48l16.32-.73v-26.4h17.6v26.22h27.69v13.75h-27.69v49.88c0,8.43,3.12,11.37,11.74,11.37h13Z" style="fill:#fff"/><path d="M1073.9,288.6c-14.85-3.85-20.35-10.82-20.35-25.49,0-20.35,10.45-25.12,35.39-24.94a286.63,286.63,0,0,1,38.14,3.12l-1.47,12.84c-11.19-.37-22.74-.92-33.92-.92-16,0-20.9.18-20.9,9.9,0,8.62,4.22,9.35,12.65,11.74l25.3,6.23c14.49,3.85,20.9,9.53,20.9,25.12,0,22-12.1,25.85-38.87,25.85a240.62,240.62,0,0,1-35.57-2.57l1.28-13.2c8.25.73,19.07.92,30.62.92,19.62,0,25.3-1.83,25.3-11,0-8.25-5.13-9.17-13.57-11.37Z" style="fill:#fff"/><path d="M1203.35,329.31c-5.87,1.65-16.32,2.38-21.09,2.38-15.22,0-23.29-9-23.29-25.12V254.31h-16.32V241.48l16.32-.73v-26.4h17.6v26.22h27.69v13.75h-27.69v49.88c0,8.43,3.12,11.37,11.74,11.37h13Z" style="fill:#fff"/><path d="M1304.2,285.48c0,34.11-11.55,46.94-42.72,46.94s-42.72-12.84-42.72-46.94c0-34.29,11.55-47.31,42.72-47.31S1304.2,251.19,1304.2,285.48Zm-66.93,0c0,24.75,5.68,32.09,24.2,32.09s24.2-7.33,24.2-32.09c0-25.12-5.68-32.27-24.2-32.27S1237.27,260.36,1237.27,285.48Z" style="fill:#fff"/><path d="M1343.62,254.31c13.2-10.09,26.4-16.14,39.61-16.14,15.77,0,24.2,8.62,24.2,24.75V330h-17.79v-62c0-11.37-2.93-14.85-11.37-14.85-10.08,0-19.25,5.13-33,13.39V330h-17.79V240.56h15Z" style="fill:#fff"/><path d="M1448.86,293.92c1.83,19.44,9.54,23.47,26.77,23.47a311,311,0,0,0,31.36-2.2l1.65,11.74c-8.8,3.85-24.75,5.32-35.39,5.32-31.17,0-43.09-12.65-43.09-47.12,0-35.39,12.47-46.94,41.44-46.94,27.87,0,39.24,10.45,39.24,30.07,0,16.14-6.79,25.67-21.82,25.67Zm35.39-13.75c7.52,0,8.8-6.42,8.8-11.92-.18-10.82-5.32-15-20.54-15-17.42,0-23.29,5.68-23.84,27Z" style="fill:#fff"/><path d="M669.56,430.86a12,12,0,0,1-5.09,2.14,34.21,34.21,0,0,1-6.57.6,21.53,21.53,0,0,1-7.91-1.44,17.29,17.29,0,0,1-6.43-4.39,21.11,21.11,0,0,1-4.36-7.54,33,33,0,0,1-1.61-10.89,31,31,0,0,1,1.78-11.16,21.32,21.32,0,0,1,4.69-7.5,18.05,18.05,0,0,1,6.53-4.25A21.06,21.06,0,0,1,658,385.1a40.32,40.32,0,0,1,6.57.44,21.11,21.11,0,0,1,4.36,1.17l-1.34,5q-3.22-1.61-9.18-1.61a15.34,15.34,0,0,0-5.43,1,12.46,12.46,0,0,0-4.79,3.28,16.63,16.63,0,0,0-3.38,6,27.91,27.91,0,0,0-1.27,9,26.74,26.74,0,0,0,1.21,8.44,17.39,17.39,0,0,0,3.32,6,13.54,13.54,0,0,0,5,3.62,15.71,15.71,0,0,0,6.2,1.21,20.41,20.41,0,0,0,5.26-.6,14.52,14.52,0,0,0,3.79-1.54Z" style="fill:#fff"/><path d="M677.27,399.37q2.34-.13,4.92-.33t6.4-.2q6.63,0,9.52,2a7.1,7.1,0,0,1,2.88,6.2,8.7,8.7,0,0,1-1.37,4.59,8.09,8.09,0,0,1-4.52,3.32v.27q4,.74,5.56,2.75a8.33,8.33,0,0,1,1.61,5.36q0,5.23-3.75,7.57t-11.26,2.35q-2.82,0-5.23-.17t-4.76-.37Zm11.93,14.07a7,7,0,0,0,2.34-.4,7.18,7.18,0,0,0,2-1.11,6,6,0,0,0,1.47-1.64,3.81,3.81,0,0,0,.57-2q0-2.68-1.61-3.72t-5.63-1q-2.14,0-3.38.07l-2.38.13v9.72Zm-6.57,14.88q1.27.14,2.51.2t2.92.07q4.49,0,6.67-1.27A4.63,4.63,0,0,0,696.9,423a4.83,4.83,0,0,0-1.84-3.92q-1.84-1.51-6.53-1.51h-5.9Z" style="fill:#fff"/><path d="M735.16,430.13a15.13,15.13,0,0,1-5.06,2.55,21.89,21.89,0,0,1-6.47.94,16.36,16.36,0,0,1-6.63-1.24,11.8,11.8,0,0,1-4.62-3.55,15.36,15.36,0,0,1-2.68-5.53,27.69,27.69,0,0,1-.87-7.24q0-8.58,3.82-13.07t10.92-4.49a21.1,21.1,0,0,1,4.56.5,9.63,9.63,0,0,1,7,5.9,17,17,0,0,1,1.14,6.8,33.13,33.13,0,0,1-.4,4.89H714.39a20.47,20.47,0,0,0,.6,5.23,10.17,10.17,0,0,0,1.88,3.85,8.12,8.12,0,0,0,3.32,2.41,13.16,13.16,0,0,0,5,.84,13.61,13.61,0,0,0,4.56-.8,9.69,9.69,0,0,0,3.42-1.88Zm-11.53-26.94a9.28,9.28,0,0,0-6.33,2.08q-2.38,2.08-2.85,7.1h16.62q0-5.09-1.94-7.14A7.23,7.23,0,0,0,723.64,403.19Z" style="fill:#fff"/><path d="M766.12,404H755.6v28.81h-5.36V404H739.72V399.3h26.4Z" style="fill:#fff"/><path d="M768.47,416.06q0-8.51,3.79-13t10.89-4.52a16,16,0,0,1,6.53,1.24,11.86,11.86,0,0,1,4.59,3.55,15.35,15.35,0,0,1,2.68,5.56,27.83,27.83,0,0,1,.87,7.2q0,8.51-3.79,13t-10.89,4.52a15.94,15.94,0,0,1-6.53-1.24,11.85,11.85,0,0,1-4.59-3.55,15.34,15.34,0,0,1-2.68-5.56A27.79,27.79,0,0,1,768.47,416.06Zm5.56,0a23.29,23.29,0,0,0,.5,4.89,12.88,12.88,0,0,0,1.58,4.09,8.45,8.45,0,0,0,2.81,2.81,7.9,7.9,0,0,0,4.22,1.07q9.11.07,9.11-12.87a23.63,23.63,0,0,0-.5-5,12.92,12.92,0,0,0-1.57-4.09,8.2,8.2,0,0,0-2.81-2.78,8.11,8.11,0,0,0-4.22-1Q774,403.12,774,416.06Z" style="fill:#fff"/><path d="M835.48,441.32h-3.62l-1-8.51h-25.2l-1,8.51H801v-13.2h4a17.07,17.07,0,0,0,1.41-2.65,31.27,31.27,0,0,0,1.71-5.36,78,78,0,0,0,1.47-8.58,119.58,119.58,0,0,0,.77-12.23h20.24v28.81h4.89Zm-10.25-13.2V404H815.17q-.14,2.81-.47,6.13t-.9,6.63a55.09,55.09,0,0,1-1.44,6.27,27.53,27.53,0,0,1-2,5.09Z" style="fill:#fff"/><path d="M863,413l.2-4.16H863l-2.75,4.29-15.08,19.7h-3.08V399.3h5.36v20.44l-.2,4h.27l2.61-4.16,15.08-20.24h3.15v33.51H863Z" style="fill:#fff"/><path d="M876.82,416.06q0-8.51,3.79-13t10.89-4.52a16,16,0,0,1,6.53,1.24,11.86,11.86,0,0,1,4.59,3.55,15.35,15.35,0,0,1,2.68,5.56,27.83,27.83,0,0,1,.87,7.2q0,8.51-3.79,13t-10.89,4.52a15.94,15.94,0,0,1-6.53-1.24,11.85,11.85,0,0,1-4.59-3.55,15.34,15.34,0,0,1-2.68-5.56A27.79,27.79,0,0,1,876.82,416.06Zm5.56,0a23.29,23.29,0,0,0,.5,4.89,12.88,12.88,0,0,0,1.58,4.09,8.45,8.45,0,0,0,2.81,2.81,7.9,7.9,0,0,0,4.22,1.07q9.11.07,9.11-12.87a23.63,23.63,0,0,0-.5-5,12.92,12.92,0,0,0-1.57-4.09,8.2,8.2,0,0,0-2.81-2.78,8.11,8.11,0,0,0-4.22-1Q882.38,403.12,882.38,416.06Z" style="fill:#fff"/><path d="M943.83,441.32h-3.62l-1-8.51H914l-1,8.51h-3.62v-13.2h4a17.07,17.07,0,0,0,1.41-2.65,31.27,31.27,0,0,0,1.71-5.36,78,78,0,0,0,1.47-8.58,119.58,119.58,0,0,0,.77-12.23h20.24v28.81h4.89Zm-10.25-13.2V404H923.53q-.14,2.81-.47,6.13t-.9,6.63a55.09,55.09,0,0,1-1.44,6.27,27.53,27.53,0,0,1-2,5.09Z" style="fill:#fff"/><path d="M971,418H955.83v14.81h-5.36V399.3h5.36v14H971v-14h5.36v33.51H971Z" style="fill:#fff"/><path d="M986.11,401.78A19.32,19.32,0,0,1,992,399.5a33.15,33.15,0,0,1,7.07-.74,14,14,0,0,1,5.59.94,7.81,7.81,0,0,1,3.22,2.45,8.37,8.37,0,0,1,1.47,3.32,18.2,18.2,0,0,1,.37,3.62q0,4-.2,7.84t-.2,7.24q0,2.48.2,4.69a22.07,22.07,0,0,0,.74,4.09h-4l-1.41-4.69h-.33a11.09,11.09,0,0,1-1.51,1.84,9.68,9.68,0,0,1-2.18,1.61,13.69,13.69,0,0,1-2.95,1.17,14.2,14.2,0,0,1-3.82.47,11.6,11.6,0,0,1-4-.67,9.27,9.27,0,0,1-3.18-1.91,8.9,8.9,0,0,1-2.11-3,9.68,9.68,0,0,1-.77-4,9.31,9.31,0,0,1,1.21-4.93,8.71,8.71,0,0,1,3.38-3.15,16.74,16.74,0,0,1,5.23-1.67,41.55,41.55,0,0,1,6.73-.5h1.84a13.1,13.1,0,0,1,1.84.13q.2-2,.2-3.62,0-3.68-1.47-5.16t-5.36-1.47a18.7,18.7,0,0,0-2.45.17q-1.31.17-2.68.48a22,22,0,0,0-2.61.76,13.07,13.07,0,0,0-2.18,1Zm9.51,26.87a10.36,10.36,0,0,0,3.35-.5,9.69,9.69,0,0,0,2.55-1.27,8.07,8.07,0,0,0,1.78-1.71,7.62,7.62,0,0,0,1-1.81V417.8q-.94-.07-1.91-.1t-1.91,0a34.51,34.51,0,0,0-4.05.23,12.88,12.88,0,0,0-3.48.87,6.13,6.13,0,0,0-2.41,1.74,4.25,4.25,0,0,0-.91,2.78,5,5,0,0,0,1.68,3.85A6.16,6.16,0,0,0,995.63,428.65Z" style="fill:#fff"/><path d="M1036.57,418.94l-5.16.8-8.85,13.07h-6.5l8-11.46,2.68-2.48a10.91,10.91,0,0,1-5.93-2.81,8,8,0,0,1-2.45-6.17,11.73,11.73,0,0,1,1-5.16,9.35,9.35,0,0,1,3-3.55,12.85,12.85,0,0,1,4.62-2,26.18,26.18,0,0,1,6-.64,30.09,30.09,0,0,1,4.62.33q2.14.34,4.22.74v33.24h-5.36Zm0-15.08a9.57,9.57,0,0,0-1.94-.5,12.42,12.42,0,0,0-1.88-.17,11.52,11.52,0,0,0-6.53,1.54,5.51,5.51,0,0,0-2.25,4.89,5.33,5.33,0,0,0,2.38,4.66,10.83,10.83,0,0,0,6.27,1.64h.74l1.14,0,2.08-.1Z" style="fill:#fff"/><path d="M1072.69,405.27a13.05,13.05,0,0,1,4.89-4.52,15.24,15.24,0,0,1,6.7-1.31q6.16,0,9.48,4t3.32,11.86q0,9-3.85,13.67t-10.76,4.62q-7.37,0-11.06-5.09t-3.69-16a72.55,72.55,0,0,1,.57-9.85,30.58,30.58,0,0,1,1.67-6.9,13.9,13.9,0,0,1,2.68-4.49,12.3,12.3,0,0,1,3.55-2.65,15.8,15.8,0,0,1,4.32-1.37q2.35-.4,5-.67a47.92,47.92,0,0,0,5.46-.77,6.59,6.59,0,0,0,3.18-1.57l.6,4.82a6.62,6.62,0,0,1-1.47,1,8.91,8.91,0,0,1-1.94.67,27,27,0,0,1-2.71.47q-1.58.2-3.65.33a32.85,32.85,0,0,0-5.06.7,8.18,8.18,0,0,0-3.75,1.94,9.63,9.63,0,0,0-2.48,4.09,29.19,29.19,0,0,0-1.24,7Zm.6,10.86a21.82,21.82,0,0,0,.54,4.89,13.33,13.33,0,0,0,1.64,4.12,7.78,7.78,0,0,0,6.94,3.79,7.72,7.72,0,0,0,6.87-3.32q2.24-3.32,2.25-9.82a22,22,0,0,0-.47-4.69,11.38,11.38,0,0,0-1.47-3.72A6.93,6.93,0,0,0,1087,405a7.61,7.61,0,0,0-3.69-.84q-5.23-.07-7.64,3T1073.29,416.12Z" style="fill:#fff"/><path d="M1105.52,399.3h3.69l1,4h.27a10.26,10.26,0,0,1,4-3.59,12.22,12.22,0,0,1,5.6-1.24q6.7,0,10,4t3.28,12.93a24.41,24.41,0,0,1-1.11,7.61,16.6,16.6,0,0,1-3.12,5.73,13.64,13.64,0,0,1-4.86,3.62,15.36,15.36,0,0,1-6.33,1.27,20.06,20.06,0,0,1-3.92-.3,15.84,15.84,0,0,1-3.12-1v13.94h-5.36Zm13.54,3.89a7.78,7.78,0,0,0-5.39,1.78,9.92,9.92,0,0,0-2.78,5.39V427a9,9,0,0,0,2.75,1.44,13.55,13.55,0,0,0,4.09.5,8.84,8.84,0,0,0,7.34-3.45q2.71-3.45,2.71-10.15a24.57,24.57,0,0,0-.47-5,11,11,0,0,0-1.51-3.82,7.25,7.25,0,0,0-2.68-2.45A8.58,8.58,0,0,0,1119.06,403.19Z" style="fill:#fff"/><path d="M1150.85,421l1.88,6.43h.34l1.48-6.5,6.52-21.64h5.36l-9.92,30.09q-1.14,3.28-2.25,6.37a37.21,37.21,0,0,1-2.45,5.5,14,14,0,0,1-3,3.85,5.78,5.78,0,0,1-3.89,1.44,10,10,0,0,1-4-.67l.94-4.62a4.67,4.67,0,0,0,1.68.33,4.91,4.91,0,0,0,3.62-2q1.74-2,2.88-6.8l-13.47-33.51h6.17Z" style="fill:#fff"/><path d="M1194.65,430.6a14.62,14.62,0,0,1-4.76,2.25,21.27,21.27,0,0,1-5.76.77,15.59,15.59,0,0,1-6.57-1.24,11.22,11.22,0,0,1-4.39-3.55,15.1,15.1,0,0,1-2.48-5.56,31.25,31.25,0,0,1-.77-7.2q0-8.51,3.75-13t10.79-4.52a25.42,25.42,0,0,1,5.46.5,16.71,16.71,0,0,1,4.05,1.44l-1.54,4.62a14.63,14.63,0,0,0-3.42-1.37,15.5,15.5,0,0,0-4-.5q-9.52,0-9.51,12.87a22.82,22.82,0,0,0,.5,4.86,11.94,11.94,0,0,0,1.68,4.09,8.77,8.77,0,0,0,3.08,2.85,9.53,9.53,0,0,0,4.72,1.07,11.92,11.92,0,0,0,4.32-.74,12.22,12.22,0,0,0,3.12-1.68Z" style="fill:#fff"/><path d="M1205.5,399.3v9.11a23.57,23.57,0,0,0,.2,3.25,6.74,6.74,0,0,0,.8,2.48,4,4,0,0,0,1.74,1.61,6.77,6.77,0,0,0,3,.57,15.46,15.46,0,0,0,5-.67,10,10,0,0,0,2.95-1.47V399.3h5.36v33.51h-5.36V418.74a19.14,19.14,0,0,1-3.18,1.47,16.78,16.78,0,0,1-5.8.8,15.87,15.87,0,0,1-4.36-.54,6.84,6.84,0,0,1-3.15-1.88,8.44,8.44,0,0,1-1.91-3.55,20.46,20.46,0,0,1-.64-5.56V399.3Z" style="fill:#fff"/><path d="M1234.32,401.78a19.32,19.32,0,0,1,5.93-2.28,33.15,33.15,0,0,1,7.07-.74,14,14,0,0,1,5.59.94,7.81,7.81,0,0,1,3.22,2.45,8.37,8.37,0,0,1,1.47,3.32,18.2,18.2,0,0,1,.37,3.62q0,4-.2,7.84t-.2,7.24q0,2.48.2,4.69a22.07,22.07,0,0,0,.74,4.09h-4l-1.41-4.69h-.33a11.09,11.09,0,0,1-1.51,1.84,9.68,9.68,0,0,1-2.18,1.61,13.69,13.69,0,0,1-2.95,1.17,14.2,14.2,0,0,1-3.82.47,11.6,11.6,0,0,1-4-.67,9.27,9.27,0,0,1-3.18-1.91,8.9,8.9,0,0,1-2.11-3,9.68,9.68,0,0,1-.77-4,9.31,9.31,0,0,1,1.21-4.93,8.71,8.71,0,0,1,3.38-3.15,16.74,16.74,0,0,1,5.23-1.67,41.55,41.55,0,0,1,6.73-.5h1.84a13.1,13.1,0,0,1,1.84.13q.2-2,.2-3.62,0-3.68-1.47-5.16t-5.36-1.47a18.7,18.7,0,0,0-2.45.17q-1.31.17-2.68.48a22,22,0,0,0-2.61.76,13.07,13.07,0,0,0-2.18,1Zm9.51,26.87a10.36,10.36,0,0,0,3.35-.5,9.69,9.69,0,0,0,2.55-1.27,8.07,8.07,0,0,0,1.78-1.71,7.62,7.62,0,0,0,1-1.81V417.8q-.94-.07-1.91-.1t-1.91,0a34.51,34.51,0,0,0-4.05.23,12.88,12.88,0,0,0-3.48.87,6.13,6.13,0,0,0-2.41,1.74,4.25,4.25,0,0,0-.91,2.78,5,5,0,0,0,1.68,3.85A6.16,6.16,0,0,0,1243.83,428.65Z" style="fill:#fff"/><path d="M1289.46,404h-10.52v28.81h-5.36V404h-10.52V399.3h26.4Z" style="fill:#fff"/><path d="M1303.2,417.73h-3.08v15.08h-5.36V399.3h5.36v15.14l2.88-.94,10.72-14.21h5.83l-10.39,13.47-2.81,2.21,3.48,2.68L1321,432.81h-6.63Z" style="fill:#fff"/><path d="M1326.25,401.78a19.32,19.32,0,0,1,5.93-2.28,33.15,33.15,0,0,1,7.07-.74,14,14,0,0,1,5.59.94,7.81,7.81,0,0,1,3.22,2.45,8.37,8.37,0,0,1,1.47,3.32,18.2,18.2,0,0,1,.37,3.62q0,4-.2,7.84t-.2,7.24q0,2.48.2,4.69a22.07,22.07,0,0,0,.74,4.09h-4l-1.41-4.69h-.33a11.09,11.09,0,0,1-1.51,1.84,9.68,9.68,0,0,1-2.18,1.61,13.69,13.69,0,0,1-2.95,1.17,14.2,14.2,0,0,1-3.82.47,11.6,11.6,0,0,1-4-.67,9.27,9.27,0,0,1-3.18-1.91,8.9,8.9,0,0,1-2.11-3,9.68,9.68,0,0,1-.77-4,9.31,9.31,0,0,1,1.21-4.93,8.71,8.71,0,0,1,3.38-3.15,16.74,16.74,0,0,1,5.23-1.67,41.55,41.55,0,0,1,6.73-.5h1.84a13.1,13.1,0,0,1,1.84.13q.2-2,.2-3.62,0-3.68-1.47-5.16t-5.36-1.47a18.7,18.7,0,0,0-2.45.17q-1.31.17-2.68.48a22,22,0,0,0-2.61.76,13.07,13.07,0,0,0-2.18,1Zm9.51,26.87a10.36,10.36,0,0,0,3.35-.5,9.69,9.69,0,0,0,2.55-1.27,8.07,8.07,0,0,0,1.78-1.71,7.62,7.62,0,0,0,1-1.81V417.8q-.94-.07-1.91-.1t-1.91,0a34.51,34.51,0,0,0-4.05.23,12.88,12.88,0,0,0-3.48.87,6.13,6.13,0,0,0-2.41,1.74,4.25,4.25,0,0,0-.91,2.78,5,5,0,0,0,1.68,3.85A6.16,6.16,0,0,0,1335.77,428.65Z" style="fill:#fff"/></g></svg>