<svg xmlns="http://www.w3.org/2000/svg" xmlns:xlink="http://www.w3.org/1999/xlink" viewBox="0 0 1509.66 532.03"><defs><linearGradient id="Безымянный_градиент_103" y1="266.02" x2="531.65" y2="266.02" gradientUnits="userSpaceOnUse"><stop offset="0" stop-color="#212121"/><stop offset="0.01" stop-color="#232225"/><stop offset="0.2" stop-color="#412d61"/><stop offset="0.38" stop-color="#7e2351"/><stop offset="0.58" stop-color="#bc1941"/><stop offset="0.68" stop-color="#d4153b"/><stop offset="0.76" stop-color="#d4214a"/><stop offset="1" stop-color="#d44375"/></linearGradient><clipPath id="clip-path"><path d="M26.89,295.08,1.73,269.65a6,6,0,0,1,0-8.43l99.16-99.16a6,6,0,0,1,8.45,0l35.54,35.54a6,6,0,0,1-.45,8.86L34.91,295.52A6,6,0,0,1,26.89,295.08ZM172.43,182.84,281.36,93.48a6,6,0,0,0,.43-8.85l-47.5-47.5a6,6,0,0,0-8.45,0l-99.14,99.14a6,6,0,0,0,0,8.45l37.72,37.72A6,6,0,0,0,172.43,182.84Zm74.13-158,49.73,49.73a6,6,0,0,0,7.94.46l16.34-13a6,6,0,0,0,.51-8.91L269.67,1.75a6,6,0,0,0-8.45,0L246.56,16.41A6,6,0,0,0,246.56,24.86ZM222.84,173.37l-170.47,139a6,6,0,0,0-.45,8.86l42.59,42.59a6,6,0,0,0,8,.41L273,225.22a6,6,0,0,0,.45-8.86l-42.59-42.59A6,6,0,0,0,222.84,173.37Zm36.05-20.65,42,42a6,6,0,0,0,8,.43L389,130.41a6,6,0,0,0,.47-8.88L346.9,79a6,6,0,0,0-8-.39l-79.55,65.29A6,6,0,0,0,258.89,152.72Zm14.73,235.89L403.93,248.13a6,6,0,0,0-.16-8.29L353.94,190a6,6,0,0,0-8-.41l-149,121.52a6,6,0,0,0-.46,8.85L265,388.77A6,6,0,0,0,273.63,388.62Zm-102.47-56L117.3,377.4a6,6,0,0,0-.41,8.82l78.7,78.86a6,6,0,0,0,8.7-.26l46.52-52.56a6,6,0,0,0-.26-8.19L179.2,333A6,6,0,0,0,171.16,332.6ZM423.89,228.32l30.49-33.85a6,6,0,0,0-.22-8.22L411.4,143.49a6,6,0,0,0-8-.41L368,172a6,6,0,0,0-.45,8.86l47.72,47.72A6,6,0,0,0,423.89,228.32Zm-154.14,302,99.16-99.16a6,6,0,0,0,0-8.45l-47.62-47.62a6,6,0,0,0-8.6.16L217,478.19a6,6,0,0,0,.17,8.31l44.1,43.8A6,6,0,0,0,269.75,530.28ZM339,356.67l48,48a6,6,0,0,0,8.45,0l99.13-99.13a6,6,0,0,0,0-8.46L442.13,245a6,6,0,0,0-8.62.2L338.82,348.41A6,6,0,0,0,339,356.67Zm128.39-148L450.91,227a6,6,0,0,0,.21,8.23l52.8,52.8a6,6,0,0,0,8.45,0l17.53-17.53a6,6,0,0,0,0-8.46L476,208.46A6,6,0,0,0,467.4,208.7Z" style="fill:url(#Безымянный_градиент_103)"/></clipPath><linearGradient id="Безымянный_градиент_103-3" x1="3253.23" y1="-978.05" x2="3633.23" y2="-1358.05" gradientTransform="translate(-3177.79 1434.27)" xlink:href="#Безымянный_градиент_103"/></defs><title>logo_image_text</title><g id="Слой_7" data-name="Слой 7"><path d="M26.89,295.08,1.73,269.65a6,6,0,0,1,0-8.43l99.16-99.16a6,6,0,0,1,8.45,0l35.54,35.54a6,6,0,0,1-.45,8.86L34.91,295.52A6,6,0,0,1,26.89,295.08ZM172.43,182.84,281.36,93.48a6,6,0,0,0,.43-8.85l-47.5-47.5a6,6,0,0,0-8.45,0l-99.14,99.14a6,6,0,0,0,0,8.45l37.72,37.72A6,6,0,0,0,172.43,182.84Zm74.13-158,49.73,49.73a6,6,0,0,0,7.94.46l16.34-13a6,6,0,0,0,.51-8.91L269.67,1.75a6,6,0,0,0-8.45,0L246.56,16.41A6,6,0,0,0,246.56,24.86ZM222.84,173.37l-170.47,139a6,6,0,0,0-.45,8.86l42.59,42.59a6,6,0,0,0,8,.41L273,225.22a6,6,0,0,0,.45-8.86l-42.59-42.59A6,6,0,0,0,222.84,173.37Zm36.05-20.65,42,42a6,6,0,0,0,8,.43L389,130.41a6,6,0,0,0,.47-8.88L346.9,79a6,6,0,0,0-8-.39l-79.55,65.29A6,6,0,0,0,258.89,152.72Zm14.73,235.89L403.93,248.13a6,6,0,0,0-.16-8.29L353.94,190a6,6,0,0,0-8-.41l-149,121.52a6,6,0,0,0-.46,8.85L265,388.77A6,6,0,0,0,273.63,388.62Zm-102.47-56L117.3,377.4a6,6,0,0,0-.41,8.82l78.7,78.86a6,6,0,0,0,8.7-.26l46.52-52.56a6,6,0,0,0-.26-8.19L179.2,333A6,6,0,0,0,171.16,332.6ZM423.89,228.32l30.49-33.85a6,6,0,0,0-.22-8.22L411.4,143.49a6,6,0,0,0-8-.41L368,172a6,6,0,0,0-.45,8.86l47.72,47.72A6,6,0,0,0,423.89,228.32Zm-154.14,302,99.16-99.16a6,6,0,0,0,0-8.45l-47.62-47.62a6,6,0,0,0-8.6.16L217,478.19a6,6,0,0,0,.17,8.31l44.1,43.8A6,6,0,0,0,269.75,530.28ZM339,356.67l48,48a6,6,0,0,0,8.45,0l99.13-99.13a6,6,0,0,0,0-8.46L442.13,245a6,6,0,0,0-8.62.2L338.82,348.41A6,6,0,0,0,339,356.67Zm128.39-148L450.91,227a6,6,0,0,0,.21,8.23l52.8,52.8a6,6,0,0,0,8.45,0l17.53-17.53a6,6,0,0,0,0-8.46L476,208.46A6,6,0,0,0,467.4,208.7Z" style="fill:url(#Безымянный_градиент_103)"/><g style="clip-path:url(#clip-path)"><rect x="75.44" y="76.23" width="380" height="380" transform="translate(-110.5 265.67) rotate(-45)" style="fill:url(#Безымянный_градиент_103-3)"/></g><path d="M653.22,286.9c0,8.62,3.12,11.74,11.55,11.74h44.92l.92,14.12c-15.77,1.47-32.46,1.65-48.78,1.65-20.17,0-27-10.64-27-24.94v-102h18.34Z"/><path d="M741.78,186.42c3.48,0,5.13,2,5.13,5.13v10.27c0,3.48-1.65,5.32-5.13,5.32h-8.43c-3.48,0-5.13-1.83-5.13-5.32V191.55c0-3.12,1.65-5.13,5.13-5.13ZM728.76,314V224.56h17.6V314Z"/><path d="M846.3,235.38c2,4,3.12,9.17,3.12,15.59,0,20-9.72,28.6-38.87,28.6a97.89,97.89,0,0,1-17.79-1.47c-3.3,5.13-2.57,12.65,5.68,13.94l33,5.13c17.24,2.57,23.47,10.45,23.47,25.49,0,21.27-10.64,28.05-43.27,28.05-33,0-43.82-6.78-43.82-27.5,0-10.27,4.4-15.22,14.3-20.72-8.8-7-7-21.82,1.28-27.69-8.62-4.4-11.74-12.1-11.74-23.65,0-20.72,9.54-29,39.06-29,8.8,0,15.77.73,21.27,2.38h27.87l-.92,9.54Zm-52.81,71c-5.5,4.58-8.43,8.8-8.43,15.4,0,12.1,5.13,13.94,26.4,13.94,20.9,0,26-2.38,26-13.94,0-8.62-2.75-9.72-15.22-11.55ZM832.91,251c0-11.37-5.5-15.22-22.37-15.22-17.05,0-22.74,3.85-22.74,15.22,0,11,5.68,15.22,22.74,15.22C827.41,266.18,832.91,262,832.91,251Z"/><path d="M895.43,220.34a118.87,118.87,0,0,1-1.28,17.42c13-9.54,26-15.59,39.06-15.59,15.59,0,24.2,8.62,24.2,24.75V314H939.62v-62c0-11.37-2.93-14.85-11.37-14.85-10.08,0-19.25,4.77-33,13.2V314H877.46V185.69h18Z"/><path d="M1035.88,313.31c-5.87,1.65-16.32,2.38-21.09,2.38-15.22,0-23.29-9-23.29-25.12V238.31H975.19V225.48l16.32-.73v-26.4h17.6v26.22h27.69v13.75h-27.69v49.88c0,8.43,3.12,11.37,11.74,11.37h13Z"/><path d="M1070.9,272.6c-14.85-3.85-20.35-10.82-20.35-25.49,0-20.35,10.45-25.12,35.39-24.94a286.79,286.79,0,0,1,38.14,3.12l-1.47,12.84c-11.19-.37-22.74-.92-33.92-.92-16,0-20.9.18-20.9,9.9,0,8.62,4.22,9.35,12.65,11.74l25.3,6.23c14.49,3.85,20.9,9.53,20.9,25.12,0,22-12.1,25.85-38.87,25.85a240.62,240.62,0,0,1-35.57-2.57l1.28-13.2c8.25.73,19.07.92,30.62.92,19.62,0,25.3-1.83,25.3-11,0-8.25-5.13-9.17-13.57-11.37Z"/><path d="M1200.35,313.31c-5.87,1.65-16.32,2.38-21.09,2.38-15.22,0-23.29-9-23.29-25.12V238.31h-16.32V225.48l16.32-.73v-26.4h17.6v26.22h27.69v13.75h-27.69v49.88c0,8.43,3.12,11.37,11.74,11.37h13Z"/><path d="M1301.2,269.48c0,34.11-11.55,46.94-42.72,46.94s-42.72-12.84-42.72-46.94c0-34.29,11.55-47.31,42.72-47.31S1301.2,235.2,1301.2,269.48Zm-66.93,0c0,24.75,5.68,32.09,24.2,32.09s24.2-7.33,24.2-32.09c0-25.12-5.68-32.27-24.2-32.27S1234.27,244.36,1234.27,269.48Z"/><path d="M1340.62,238.31c13.2-10.09,26.4-16.14,39.61-16.14,15.77,0,24.2,8.62,24.2,24.75V314h-17.79v-62c0-11.37-2.93-14.85-11.37-14.85-10.08,0-19.25,5.13-33,13.39V314h-17.79V224.56h15Z"/><path d="M1445.86,277.92c1.83,19.44,9.54,23.47,26.77,23.47a311,311,0,0,0,31.36-2.2l1.65,11.74c-8.8,3.85-24.75,5.32-35.39,5.32-31.17,0-43.09-12.65-43.09-47.12,0-35.39,12.47-46.94,41.44-46.94,27.87,0,39.24,10.45,39.24,30.07,0,16.14-6.79,25.67-21.82,25.67Zm35.39-13.75c7.52,0,8.8-6.42,8.8-11.92-.18-10.82-5.32-15-20.54-15-17.42,0-23.29,5.68-23.84,27Z"/><path d="M666.56,414.86a12,12,0,0,1-5.09,2.14,34.17,34.17,0,0,1-6.57.6,21.53,21.53,0,0,1-7.91-1.44,17.29,17.29,0,0,1-6.43-4.39,21.11,21.11,0,0,1-4.36-7.54,33,33,0,0,1-1.61-10.89,31,31,0,0,1,1.78-11.16,21.31,21.31,0,0,1,4.69-7.5,18.06,18.06,0,0,1,6.53-4.26A21.07,21.07,0,0,1,655,369.1a40.32,40.32,0,0,1,6.57.44,21.08,21.08,0,0,1,4.36,1.17l-1.34,5q-3.22-1.61-9.18-1.61a15.35,15.35,0,0,0-5.43,1,12.47,12.47,0,0,0-4.79,3.28,16.63,16.63,0,0,0-3.38,6,27.91,27.91,0,0,0-1.27,9,26.74,26.74,0,0,0,1.21,8.44,17.39,17.39,0,0,0,3.32,6,13.55,13.55,0,0,0,5,3.62,15.72,15.72,0,0,0,6.2,1.21,20.41,20.41,0,0,0,5.26-.6,14.5,14.5,0,0,0,3.79-1.54Z"/><path d="M674.27,383.37q2.34-.13,4.92-.33t6.4-.2q6.63,0,9.52,2a7.1,7.1,0,0,1,2.88,6.2,8.7,8.7,0,0,1-1.37,4.59,8.09,8.09,0,0,1-4.52,3.32v.27q4,.74,5.56,2.75a8.33,8.33,0,0,1,1.61,5.36q0,5.23-3.75,7.57t-11.26,2.35q-2.82,0-5.23-.17t-4.76-.37Zm11.93,14.07a7,7,0,0,0,2.34-.4,7.21,7.21,0,0,0,2-1.11,6,6,0,0,0,1.47-1.64,3.81,3.81,0,0,0,.57-2q0-2.68-1.61-3.72t-5.63-1q-2.14,0-3.38.07l-2.38.13v9.72Zm-6.57,14.88q1.27.13,2.51.2t2.92.07q4.49,0,6.67-1.27A4.63,4.63,0,0,0,693.9,407a4.83,4.83,0,0,0-1.84-3.92q-1.84-1.51-6.53-1.51h-5.9Z"/><path d="M732.16,414.13a15.13,15.13,0,0,1-5.06,2.55,21.89,21.89,0,0,1-6.47.94,16.36,16.36,0,0,1-6.63-1.24,11.8,11.8,0,0,1-4.62-3.55,15.37,15.37,0,0,1-2.68-5.53,27.69,27.69,0,0,1-.87-7.24q0-8.58,3.82-13.07t10.92-4.49a21.1,21.1,0,0,1,4.56.5,9.63,9.63,0,0,1,7,5.9,17,17,0,0,1,1.14,6.8,33.14,33.14,0,0,1-.4,4.89H711.39a20.48,20.48,0,0,0,.6,5.23,10.17,10.17,0,0,0,1.88,3.85,8.12,8.12,0,0,0,3.32,2.41,13.17,13.17,0,0,0,5,.84,13.61,13.61,0,0,0,4.56-.8,9.7,9.7,0,0,0,3.42-1.88Zm-11.53-26.94a9.29,9.29,0,0,0-6.33,2.08q-2.38,2.08-2.85,7.1h16.62q0-5.09-1.94-7.14A7.22,7.22,0,0,0,720.64,387.19Z"/><path d="M763.12,388H752.6v28.81h-5.36V388H736.72V383.3h26.4Z"/><path d="M765.47,400.06q0-8.51,3.79-13t10.89-4.52a16,16,0,0,1,6.53,1.24,11.86,11.86,0,0,1,4.59,3.55,15.35,15.35,0,0,1,2.68,5.56,27.84,27.84,0,0,1,.87,7.2q0,8.51-3.79,13t-10.89,4.52a15.94,15.94,0,0,1-6.53-1.24,11.85,11.85,0,0,1-4.59-3.55,15.34,15.34,0,0,1-2.68-5.56A27.79,27.79,0,0,1,765.47,400.06Zm5.56,0a23.29,23.29,0,0,0,.5,4.89,12.88,12.88,0,0,0,1.58,4.09,8.45,8.45,0,0,0,2.81,2.81,7.9,7.9,0,0,0,4.22,1.07q9.11.07,9.11-12.87a23.64,23.64,0,0,0-.5-5,12.92,12.92,0,0,0-1.57-4.09,8.2,8.2,0,0,0-2.81-2.78,8.11,8.11,0,0,0-4.22-1Q771,387.12,771,400.06Z"/><path d="M832.48,425.32h-3.62l-1-8.51h-25.2l-1,8.51H798v-13.2h4a17.08,17.08,0,0,0,1.41-2.65,31.26,31.26,0,0,0,1.71-5.36,78,78,0,0,0,1.47-8.58,119.57,119.57,0,0,0,.77-12.23h20.24v28.81h4.89Zm-10.25-13.2V388H812.17q-.14,2.81-.47,6.13t-.9,6.63a55,55,0,0,1-1.44,6.27,27.51,27.51,0,0,1-2,5.09Z"/><path d="M860,397l.2-4.15H860l-2.75,4.29-15.08,19.7h-3.08V383.3h5.36v20.44l-.2,4h.27l2.61-4.15,15.08-20.24h3.15v33.51H860Z"/><path d="M873.82,400.06q0-8.51,3.79-13t10.89-4.52a16,16,0,0,1,6.53,1.24,11.86,11.86,0,0,1,4.59,3.55,15.35,15.35,0,0,1,2.68,5.56,27.84,27.84,0,0,1,.87,7.2q0,8.51-3.79,13t-10.89,4.52a15.94,15.94,0,0,1-6.53-1.24,11.85,11.85,0,0,1-4.59-3.55,15.34,15.34,0,0,1-2.68-5.56A27.79,27.79,0,0,1,873.82,400.06Zm5.56,0a23.29,23.29,0,0,0,.5,4.89,12.88,12.88,0,0,0,1.58,4.09,8.45,8.45,0,0,0,2.81,2.81,7.9,7.9,0,0,0,4.22,1.07q9.11.07,9.11-12.87a23.64,23.64,0,0,0-.5-5,12.92,12.92,0,0,0-1.57-4.09,8.2,8.2,0,0,0-2.81-2.78,8.11,8.11,0,0,0-4.22-1Q879.38,387.12,879.38,400.06Z"/><path d="M940.83,425.32h-3.62l-1-8.51H911l-1,8.51h-3.62v-13.2h4a17.08,17.08,0,0,0,1.41-2.65,31.26,31.26,0,0,0,1.71-5.36,78,78,0,0,0,1.47-8.58,119.57,119.57,0,0,0,.77-12.23h20.24v28.81h4.89Zm-10.25-13.2V388H920.53q-.14,2.81-.47,6.13t-.9,6.63a55,55,0,0,1-1.44,6.27,27.51,27.51,0,0,1-2,5.09Z"/><path d="M968,402H952.83v14.81h-5.36V383.3h5.36v14H968v-14h5.36v33.51H968Z"/><path d="M983.11,385.78A19.33,19.33,0,0,1,989,383.5a33.15,33.15,0,0,1,7.07-.74,14,14,0,0,1,5.59.94,7.8,7.8,0,0,1,3.22,2.45,8.38,8.38,0,0,1,1.47,3.32,18.2,18.2,0,0,1,.37,3.62q0,4-.2,7.84t-.2,7.24q0,2.48.2,4.69a22.08,22.08,0,0,0,.74,4.09h-4l-1.41-4.69h-.33a11.07,11.07,0,0,1-1.51,1.84,9.65,9.65,0,0,1-2.18,1.61,13.69,13.69,0,0,1-2.95,1.17,14.22,14.22,0,0,1-3.82.47,11.59,11.59,0,0,1-4-.67,9.27,9.27,0,0,1-3.18-1.91,8.91,8.91,0,0,1-2.11-3,9.68,9.68,0,0,1-.77-4,9.31,9.31,0,0,1,1.21-4.93,8.71,8.71,0,0,1,3.38-3.15,16.73,16.73,0,0,1,5.23-1.67,41.5,41.5,0,0,1,6.73-.5h1.84a13.1,13.1,0,0,1,1.84.13q.2-2,.2-3.62,0-3.68-1.47-5.16t-5.36-1.47a18.7,18.7,0,0,0-2.45.17q-1.31.17-2.68.48a21.91,21.91,0,0,0-2.61.76,13,13,0,0,0-2.18,1Zm9.51,26.87a10.36,10.36,0,0,0,3.35-.5,9.7,9.7,0,0,0,2.55-1.27,8.1,8.1,0,0,0,1.78-1.71,7.62,7.62,0,0,0,1-1.81V401.8q-.94-.07-1.91-.1t-1.91,0a34.41,34.41,0,0,0-4.05.23,12.88,12.88,0,0,0-3.48.87,6.12,6.12,0,0,0-2.41,1.74,4.25,4.25,0,0,0-.91,2.78,5,5,0,0,0,1.68,3.85A6.16,6.16,0,0,0,992.63,412.65Z"/><path d="M1033.57,402.94l-5.16.8-8.85,13.07h-6.5l8-11.46,2.68-2.48a10.91,10.91,0,0,1-5.93-2.81,8,8,0,0,1-2.45-6.17,11.73,11.73,0,0,1,1-5.16,9.35,9.35,0,0,1,3-3.55,12.86,12.86,0,0,1,4.62-2,26.16,26.16,0,0,1,6-.64,30,30,0,0,1,4.62.33q2.14.34,4.22.74v33.24h-5.36Zm0-15.08a9.57,9.57,0,0,0-1.94-.5,12.42,12.42,0,0,0-1.88-.17,11.52,11.52,0,0,0-6.53,1.54,5.51,5.51,0,0,0-2.25,4.89,5.33,5.33,0,0,0,2.38,4.66,10.82,10.82,0,0,0,6.27,1.64h.74l1.14,0,2.08-.1Z"/><path d="M1069.69,389.27a13.06,13.06,0,0,1,4.89-4.52,15.24,15.24,0,0,1,6.7-1.31q6.16,0,9.48,4t3.32,11.86q0,9-3.85,13.67t-10.76,4.62q-7.37,0-11.06-5.09t-3.69-16a72.55,72.55,0,0,1,.57-9.85,30.59,30.59,0,0,1,1.67-6.9,13.9,13.9,0,0,1,2.68-4.49,12.28,12.28,0,0,1,3.55-2.65,15.78,15.78,0,0,1,4.32-1.37q2.35-.4,5-.67a48,48,0,0,0,5.46-.77,6.59,6.59,0,0,0,3.18-1.58l.6,4.83a6.66,6.66,0,0,1-1.47,1,8.91,8.91,0,0,1-1.94.67,27,27,0,0,1-2.71.47q-1.58.2-3.65.33a32.91,32.91,0,0,0-5.06.7,8.17,8.17,0,0,0-3.75,1.94,9.63,9.63,0,0,0-2.48,4.09,29.18,29.18,0,0,0-1.24,7Zm.6,10.86a21.83,21.83,0,0,0,.54,4.89,13.34,13.34,0,0,0,1.64,4.12,7.79,7.79,0,0,0,6.94,3.79,7.72,7.72,0,0,0,6.87-3.32q2.24-3.32,2.25-9.82a22,22,0,0,0-.47-4.69,11.37,11.37,0,0,0-1.47-3.72A6.93,6.93,0,0,0,1084,389a7.62,7.62,0,0,0-3.69-.84q-5.23-.07-7.64,3T1070.29,400.12Z"/><path d="M1102.52,383.3h3.69l1,4h.27a10.26,10.26,0,0,1,4-3.59,12.22,12.22,0,0,1,5.6-1.24q6.7,0,10,4t3.28,12.93a24.41,24.41,0,0,1-1.11,7.61,16.6,16.6,0,0,1-3.12,5.73,13.64,13.64,0,0,1-4.86,3.62,15.36,15.36,0,0,1-6.33,1.27,20,20,0,0,1-3.92-.3,15.84,15.84,0,0,1-3.12-1v13.94h-5.36Zm13.54,3.89a7.78,7.78,0,0,0-5.39,1.78,9.92,9.92,0,0,0-2.78,5.39V411a9,9,0,0,0,2.75,1.44,13.55,13.55,0,0,0,4.09.5,8.84,8.84,0,0,0,7.34-3.45q2.71-3.45,2.71-10.15a24.56,24.56,0,0,0-.47-5,11,11,0,0,0-1.51-3.82,7.24,7.24,0,0,0-2.68-2.45A8.58,8.58,0,0,0,1116.06,387.19Z"/><path d="M1147.85,405l1.88,6.43h.34l1.48-6.5,6.52-21.64h5.36l-9.92,30.09q-1.14,3.28-2.25,6.37a37.23,37.23,0,0,1-2.45,5.49,14,14,0,0,1-3,3.85,5.78,5.78,0,0,1-3.89,1.44,10,10,0,0,1-4-.67l.94-4.62a4.66,4.66,0,0,0,1.68.33,4.91,4.91,0,0,0,3.62-2q1.74-2,2.88-6.8l-13.47-33.51h6.17Z"/><path d="M1191.65,414.6a14.63,14.63,0,0,1-4.76,2.25,21.29,21.29,0,0,1-5.76.77,15.59,15.59,0,0,1-6.57-1.24,11.22,11.22,0,0,1-4.39-3.55,15.1,15.1,0,0,1-2.48-5.56,31.25,31.25,0,0,1-.77-7.2q0-8.51,3.75-13t10.79-4.52a25.42,25.42,0,0,1,5.46.5,16.71,16.71,0,0,1,4.05,1.44l-1.54,4.62a14.63,14.63,0,0,0-3.42-1.37,15.5,15.5,0,0,0-4-.5q-9.52,0-9.51,12.87a22.82,22.82,0,0,0,.5,4.86,11.93,11.93,0,0,0,1.68,4.09,8.77,8.77,0,0,0,3.08,2.85,9.53,9.53,0,0,0,4.72,1.07,11.92,11.92,0,0,0,4.32-.74,12.22,12.22,0,0,0,3.12-1.68Z"/><path d="M1202.5,383.3v9.11a23.57,23.57,0,0,0,.2,3.25,6.73,6.73,0,0,0,.8,2.48,4,4,0,0,0,1.74,1.61,6.78,6.78,0,0,0,3,.57,15.45,15.45,0,0,0,5-.67,10,10,0,0,0,2.95-1.47V383.3h5.36v33.51h-5.36V402.74a19.19,19.19,0,0,1-3.18,1.47,16.78,16.78,0,0,1-5.8.8,15.89,15.89,0,0,1-4.36-.54,6.84,6.84,0,0,1-3.15-1.88,8.43,8.43,0,0,1-1.91-3.55,20.46,20.46,0,0,1-.64-5.56V383.3Z"/><path d="M1231.32,385.78a19.33,19.33,0,0,1,5.93-2.28,33.15,33.15,0,0,1,7.07-.74,14,14,0,0,1,5.59.94,7.8,7.8,0,0,1,3.22,2.45,8.38,8.38,0,0,1,1.47,3.32,18.2,18.2,0,0,1,.37,3.62q0,4-.2,7.84t-.2,7.24q0,2.48.2,4.69a22.08,22.08,0,0,0,.74,4.09h-4l-1.41-4.69h-.33a11.07,11.07,0,0,1-1.51,1.84,9.65,9.65,0,0,1-2.18,1.61,13.69,13.69,0,0,1-2.95,1.17,14.22,14.22,0,0,1-3.82.47,11.59,11.59,0,0,1-4-.67,9.27,9.27,0,0,1-3.18-1.91,8.91,8.91,0,0,1-2.11-3,9.68,9.68,0,0,1-.77-4,9.31,9.31,0,0,1,1.21-4.93,8.71,8.71,0,0,1,3.38-3.15,16.73,16.73,0,0,1,5.23-1.67,41.5,41.5,0,0,1,6.73-.5h1.84a13.1,13.1,0,0,1,1.84.13q.2-2,.2-3.62,0-3.68-1.47-5.16t-5.36-1.47a18.7,18.7,0,0,0-2.45.17q-1.31.17-2.68.48a21.91,21.91,0,0,0-2.61.76,13,13,0,0,0-2.18,1Zm9.51,26.87a10.36,10.36,0,0,0,3.35-.5,9.7,9.7,0,0,0,2.55-1.27,8.1,8.1,0,0,0,1.78-1.71,7.62,7.62,0,0,0,1-1.81V401.8q-.94-.07-1.91-.1t-1.91,0a34.41,34.41,0,0,0-4.05.23,12.88,12.88,0,0,0-3.48.87,6.12,6.12,0,0,0-2.41,1.74,4.25,4.25,0,0,0-.91,2.78,5,5,0,0,0,1.68,3.85A6.16,6.16,0,0,0,1240.83,412.65Z"/><path d="M1286.46,388h-10.52v28.81h-5.36V388h-10.52V383.3h26.4Z"/><path d="M1300.2,401.73h-3.08v15.08h-5.36V383.3h5.36v15.14l2.88-.94,10.72-14.21h5.83l-10.39,13.47-2.81,2.21,3.48,2.68L1318,416.81h-6.63Z"/><path d="M1323.25,385.78a19.33,19.33,0,0,1,5.93-2.28,33.15,33.15,0,0,1,7.07-.74,14,14,0,0,1,5.59.94,7.8,7.8,0,0,1,3.22,2.45,8.38,8.38,0,0,1,1.47,3.32,18.2,18.2,0,0,1,.37,3.62q0,4-.2,7.84t-.2,7.24q0,2.48.2,4.69a22.08,22.08,0,0,0,.74,4.09h-4l-1.41-4.69h-.33a11.07,11.07,0,0,1-1.51,1.84,9.65,9.65,0,0,1-2.18,1.61,13.69,13.69,0,0,1-2.95,1.17,14.22,14.22,0,0,1-3.82.47,11.59,11.59,0,0,1-4-.67,9.27,9.27,0,0,1-3.18-1.91,8.91,8.91,0,0,1-2.11-3,9.68,9.68,0,0,1-.77-4,9.31,9.31,0,0,1,1.21-4.93,8.71,8.71,0,0,1,3.38-3.15,16.73,16.73,0,0,1,5.23-1.67,41.5,41.5,0,0,1,6.73-.5h1.84a13.1,13.1,0,0,1,1.84.13q.2-2,.2-3.62,0-3.68-1.47-5.16t-5.36-1.47a18.7,18.7,0,0,0-2.45.17q-1.31.17-2.68.48a21.91,21.91,0,0,0-2.61.76,13,13,0,0,0-2.18,1Zm9.51,26.87a10.36,10.36,0,0,0,3.35-.5,9.7,9.7,0,0,0,2.55-1.27,8.1,8.1,0,0,0,1.78-1.71,7.62,7.62,0,0,0,1-1.81V401.8q-.94-.07-1.91-.1t-1.91,0a34.41,34.41,0,0,0-4.05.23,12.88,12.88,0,0,0-3.48.87,6.12,6.12,0,0,0-2.41,1.74,4.25,4.25,0,0,0-.91,2.78,5,5,0,0,0,1.68,3.85A6.16,6.16,0,0,0,1332.77,412.65Z"/></g></svg>