<svg id="Слой_1" data-name="Слой 1" xmlns="http://www.w3.org/2000/svg" viewBox="0 0 52 52"><title>color</title><path d="M22.6.13c.83.13,1.73.19,2.57.32A30,30,0,0,1,38.33,5.84c.32.26.64.45,1,.71.13.13.32.19.51.39C38.52,8.09,37.3,9.18,36,10.27,34.8,9.5,33.64,8.67,32.48,8A22.26,22.26,0,0,0,20.74,4.81,17.64,17.64,0,0,0,10.34,8a12.42,12.42,0,0,0-4.49,6.61A21.15,21.15,0,0,0,5,22.15a23.87,23.87,0,0,0,2.05,9,22.31,22.31,0,0,0,8.35,9.57,36.7,36.7,0,0,0,12.84,5.14,48.34,48.34,0,0,0,5.33.71,14.5,14.5,0,0,0,5.71-.77,2.55,2.55,0,0,0,1.8-3.08,28,28,0,0,0-1.09-4,28.32,28.32,0,0,1-1.54-6.1c-.19-2.44.39-4.49,3-5.84.9-.45,1.73-.9,2.57-1.41a3.78,3.78,0,0,0,2.05-2.76,6.43,6.43,0,0,0-.32-2.18A6.47,6.47,0,0,0,44,17.53c1.16-1.22,2.31-2.44,3.53-3.79,1.16,1.54,2.25,3,3.27,4.62a15.33,15.33,0,0,1,1,2.38l.19.58v2.05c-.06.06-.06.13-.13.13a6.37,6.37,0,0,1-3.15,4.11c-1.09.64-2.18,1.16-3.27,1.86a4.15,4.15,0,0,0-2.18,3.47,4.69,4.69,0,0,0,.19,2.12c.64,2.05,1.35,4,2.05,6a19.75,19.75,0,0,1,1.41,4.69c.13,2.12-.64,4.43-3.27,5.2-1,.32-2.12.51-3.15.77-.64.13-1.35.19-2,.26h-4a12.53,12.53,0,0,0-1.48-.13A58.58,58.58,0,0,1,23,50a33.11,33.11,0,0,1-15-8.8A28.14,28.14,0,0,1,.39,25.81C.26,24.91.13,24,0,23v-4c.06-.19.06-.32.13-.51.32-1.67.51-3.4,1-5A16.57,16.57,0,0,1,6.42,4.81a20,20,0,0,1,10-4.43C17.4.19,18.3.13,19.26,0A27.93,27.93,0,0,0,22.6.13Z" style="fill:#d41f3e"/><path d="M17.27,34.8a14.79,14.79,0,0,1,1.6-4,26.9,26.9,0,0,1,4.56-6.16c1.09-1.09,2.44-2.05,3.66-3.08,3.85-3.21,7.7-6.36,11.49-9.57,2.89-2.38,5.71-4.81,8.6-7.25a1.48,1.48,0,0,1,1.93.45,4.66,4.66,0,0,1,.58,1.41c.06.13-.13.39-.26.58-2.44,2.5-4.81,5-7.25,7.51-3.4,3.53-6.87,7-10.27,10.46-1.22,1.22-2.25,2.63-3.47,3.85a29.13,29.13,0,0,1-3.08,2.5A16.37,16.37,0,0,1,18,34.73,3.15,3.15,0,0,0,17.27,34.8Z" style="fill:#d41f3e"/><path d="M28.12,38.84a4.37,4.37,0,0,1,8.73,0,4.37,4.37,0,1,1-8.73,0Z" style="fill:#d41f3e"/><path d="M10.91,27.09A3.37,3.37,0,1,1,11,20.35a3.46,3.46,0,0,1,3.34,3.4A3.56,3.56,0,0,1,10.91,27.09Z" style="fill:#d41f3e"/><path d="M17.78,14.25A3.23,3.23,0,0,1,14.7,17.4a3.19,3.19,0,0,1-3.15-3.15,3.12,3.12,0,0,1,3.08-3.08A3.06,3.06,0,0,1,17.78,14.25Z" style="fill:#d41f3e"/><path d="M20.67,9.89a3.11,3.11,0,0,1,3.27-3,3.07,3.07,0,0,1,3,3.15,3.17,3.17,0,0,1-3.27,3.08A3.26,3.26,0,0,1,20.67,9.89Z" style="fill:#d41f3e"/></svg>