<svg id="Слой_1" data-name="Слой 1" xmlns="http://www.w3.org/2000/svg" viewBox="0 0 51 51"><title>form</title><path d="M16.86,28.08c.18-1,.36-1.94.61-2.9a13.8,13.8,0,0,1,1.45-3.69,1.89,1.89,0,0,1,.91-.91,17.71,17.71,0,0,1,6.29-1.94c.3-.06.42-.12.48-.48A12,12,0,1,1,40.28,32c-.12,0-.18.06-.24.06a29.52,29.52,0,0,1-.73,3.33,24.18,24.18,0,0,1-1.39,3.45,2,2,0,0,1-.79.79,18.12,18.12,0,0,1-6.35,2,.81.81,0,0,0-.3.06v6.6c0,1-.42,1.39-1.39,1.39H10.39c-1,0-1.39-.42-1.39-1.39V29.53c0-1,.42-1.39,1.45-1.39h6.17C16.62,28.08,16.74,28.08,16.86,28.08Zm21.54,1.63a9.62,9.62,0,1,0-9.62-9.62A9.65,9.65,0,0,0,38.41,29.71Zm-12-8.65h-.12a16.11,16.11,0,0,0-5,1.45,1.24,1.24,0,0,0-.48.48,16.29,16.29,0,0,0,0,14.22.73.73,0,0,0,.42.42,16.59,16.59,0,0,0,14.34,0,1,1,0,0,0,.36-.36c.42-1.09.85-2.24,1.21-3.39.18-.61.24-1.21.36-1.82C31.08,31.11,27.39,27.41,26.36,21.06ZM28,41.76a.06.06,0,0,1-.06-.06c-.3,0-.61-.06-.85-.06a17.61,17.61,0,0,1-7.38-2.12,2.09,2.09,0,0,1-.73-.73,17.5,17.5,0,0,1-2-6.23c-.06-.73-.12-1.39-.18-2.12H11.3v16.7H28Z" style="fill:#d41f3e"/><path d="M21,4.24l-3.21.36a1.23,1.23,0,0,1-1.39-1,1.26,1.26,0,0,1,1.09-1.33c2.18-.3,4.36-.54,6.54-.85a1.22,1.22,0,0,1,1.45,1.39C25.27,5,25,7.26,24.67,9.44a1.18,1.18,0,0,1-1.33,1,1.16,1.16,0,0,1-1-1.27c.12-1.09.24-2.12.36-3.27a1.6,1.6,0,0,1-.36.3L2.7,25.84a1.56,1.56,0,0,1-.79.48,1.07,1.07,0,0,1-1.27-.54,1.29,1.29,0,0,1,.18-1.45l2.78-2.78,17-17C20.8,4.48,20.86,4.36,21,4.24Z" style="fill:#d41f3e"/></svg>