<svg id="Слой_1" data-name="Слой 1" xmlns="http://www.w3.org/2000/svg" viewBox="0 0 56 56"><title>hammer</title><path d="M24.5,6.33A7.76,7.76,0,0,0,23.27,6a31,31,0,0,0-4.38-.29,10.56,10.56,0,0,0-4.09.47,11.75,11.75,0,0,0-4.56,2.34,26.74,26.74,0,0,0-3.16,3.39,4.27,4.27,0,0,0-.64,1.46A6.6,6.6,0,0,1,5.67,15a8.46,8.46,0,0,1-1.11,1,9,9,0,0,0-1.11.53A18,18,0,0,0,2,18c-.29.29.06.88.23,1.05l1.17,1.17A5.9,5.9,0,0,0,5,21.18a.62.62,0,0,0,.7-.12c.23-.23,1.23-1.46,1.46-1.69a3.41,3.41,0,0,0,.29-.64A3,3,0,0,1,8,17.56a9.94,9.94,0,0,1,1-1.35c.41-.41.82-.82,1.23-.76a6.39,6.39,0,0,1,1.29.58c.53.53,1.17.94,1.4,1.17s.58,0,.58,0l1.29,1.29c.47.47,2.46,2,3,2.57s1.76,1.64,2.52,2.4,4.09,4.44,5,5.32a.36.36,0,0,0,.06.53,16.09,16.09,0,0,1,1.23,1.34c.47.47,2.22,2.46,2.81,3.16s2.46,2.57,3.27,3.39,4.56,4.09,5.09,4.62,2.57,2.81,3.22,3.45,3.22,3.8,3.57,4.27.64.53,1,.41a3,3,0,0,0,1.05-.7c.35-.35.64-.53,1.34-1.23a14.73,14.73,0,0,0,1.46-1.58,7,7,0,0,0,.29-.76c-.12-.23-.06-.41-.29-.53-.29-.29-3.74-3.16-4.33-3.62s-2.69-2.34-3.62-3.39-3.74-4.09-4.5-5l-3.33-3.33c-.94-.94-2.75-2.51-3.33-3.1A13.69,13.69,0,0,1,29,25.69c-.29-.29-.47-.12-.47-.12s-4.79-4.33-5.32-5-1.81-1.81-2.4-2.51-2-2.45-2.46-2.92S17.25,13.93,17,13.58a.52.52,0,0,0,.06-.64A14.76,14.76,0,0,1,15.49,11c-.35-.59-.7-1.4-.06-2A9.36,9.36,0,0,1,17.6,7.85,24,24,0,0,1,20,7.33c1.34-.18,3.1-.29,3.45-.29s.82-.24,1-.29.29-.29.06-.41Z" style="fill:#d41f3d"/></svg>