<svg id="Слой_1" data-name="Слой 1" xmlns="http://www.w3.org/2000/svg" viewBox="0 0 20 30"><title>lamp</title><path d="M.17,9.84a9.83,9.83,0,1,1,17.54,6.07A40.22,40.22,0,0,0,15,19.85v6.3A3.87,3.87,0,0,1,11.16,30H8.82A3.87,3.87,0,0,1,5,26.15V19.82a37,37,0,0,0-2.71-3.94A9.71,9.71,0,0,1,.17,9.84ZM7,20.5v3.85h6V20.5ZM8.82,28h2.34A1.82,1.82,0,0,0,13,26.41H7A1.89,1.89,0,0,0,8.82,28ZM6.53,18.45H9V10.24a1,1,0,0,1,2.05,0v8.21h2.45a43.91,43.91,0,0,1,2.65-3.85A7.69,7.69,0,0,0,17.8,9.81a7.79,7.79,0,0,0-15.58,0A7.63,7.63,0,0,0,3.88,14.6C4.82,15.86,5.74,17.14,6.53,18.45Z" style="fill:#fff"/></svg>