<svg id="Слой_1" data-name="Слой 1" xmlns="http://www.w3.org/2000/svg" viewBox="0 0 20 30"><title>safety</title><path d="M0,6.8c.25,0,.52,0,.79,0,.51,0,1,0,1.53-.12a7.09,7.09,0,0,0,2.28-.76c.73-.37,1.45-.77,2.18-1.12a7.07,7.07,0,0,1,2.46-.69,7.09,7.09,0,0,1,3.33.43c.61.24,1.19.54,1.77.84a13.8,13.8,0,0,0,2.38,1.08A8,8,0,0,0,19,6.8h1c0,.12,0,.22,0,.31,0,.89,0,1.79-.09,2.68s-.16,1.56-.27,2.34a20.25,20.25,0,0,1-.79,3.37,19.51,19.51,0,0,1-1.14,2.81,17.67,17.67,0,0,1-2.55,3.81,15.16,15.16,0,0,1-3.7,3.09c-.44.26-.92.47-1.38.69a.29.29,0,0,1-.21,0A12.55,12.55,0,0,1,6.77,24a16.64,16.64,0,0,1-3-3.27,19,19,0,0,1-2.54-5.08,23.39,23.39,0,0,1-.95-4.22A33.67,33.67,0,0,1,0,6.86ZM10.1,5.9a5,5,0,0,0-2.22.42c-.78.36-1.54.77-2.3,1.16A9.46,9.46,0,0,1,2,8.56c-.11,0-.14,0-.13.15,0,.56.07,1.12.12,1.68a20.33,20.33,0,0,0,.43,2.75,18.27,18.27,0,0,0,2.12,5.44A15.31,15.31,0,0,0,7.27,22,12.68,12.68,0,0,0,9.88,23.9a.21.21,0,0,0,.23,0,11.86,11.86,0,0,0,2.24-1.55A15.09,15.09,0,0,0,15.25,19a17.51,17.51,0,0,0,2-4.44A20.41,20.41,0,0,0,18,10.93c.08-.74.12-1.48.18-2.22,0-.1,0-.14-.13-.15l-.81-.11a8.61,8.61,0,0,1-2.44-.8c-.7-.35-1.39-.73-2.09-1.08A5.56,5.56,0,0,0,10.1,5.9Z" style="fill:#fff"/><path d="M4.84,14.71,6.1,13.44l3,3,5.72-5.73L16.06,12l-7,7Z" style="fill:#fff"/></svg>