<svg id="Слой_1" data-name="Слой 1" xmlns="http://www.w3.org/2000/svg" viewBox="0 0 52 52"><title>shield</title><path d="M49,7.06,26.86.13a2.87,2.87,0,0,0-1.71,0L3,7.06A2.87,2.87,0,0,0,1,9.79c0,30.67,15.49,38,23.82,41.93a2.87,2.87,0,0,0,2.45,0C35.55,47.79,51,40.46,51,9.79A2.87,2.87,0,0,0,49,7.06ZM26,46C18.1,42.16,7.31,35.87,6.72,11.89L26,5.87l19.28,6C44.69,35.87,33.9,42.16,26,46Z" style="fill:#d41f3d"/><path d="M25.13,13.22l-2.28,7.56L15,20.61a.91.91,0,0,0-.54,1.66l6.49,4.51-2.6,7.46a.91.91,0,0,0,1.41,1L26,30.48l6.29,4.78a.91.91,0,0,0,1.41-1l-2.6-7.46,6.49-4.51A.91.91,0,0,0,37,20.61l-7.9.17-2.28-7.56a.91.91,0,0,0-1.74,0Z" style="fill:#d41f3d"/></svg>