<svg id="Слой_1" data-name="Слой 1" xmlns="http://www.w3.org/2000/svg" viewBox="0 0 52 52"><title>size</title><path d="M3.32,25.93V13.59A1.12,1.12,0,0,1,4,12.43C11,8.39,18.1,4.34,25.1.29a1.54,1.54,0,0,1,1.8,0C34,4.4,41,8.45,48.1,12.56c.58.32.58.77.58,1.35V38.27a1.44,1.44,0,0,1-.77,1.35l-21,12.14a1.68,1.68,0,0,1-1.73,0l-21-12.14a1.44,1.44,0,0,1-.77-1.35C3.32,34.15,3.32,30,3.32,25.93ZM46.37,15.58a5.94,5.94,0,0,1-.64.32c-4.31,2.51-8.67,5-13,7.52a3.79,3.79,0,0,1-.51.26,1.12,1.12,0,0,1-1.54-1.09c0-.58.39-.84.77-1.09,4.43-2.57,8.8-5.14,13.24-7.71a2.25,2.25,0,0,0,.51-.32C39.17,10,33.2,6.52,27.16,3V24.84a.64.64,0,0,0,.45.64L45.86,36a5.93,5.93,0,0,1,.51.32ZM5.57,36.4A2.14,2.14,0,0,0,6,36.21c6.17-3.53,12.34-7.13,18.57-10.67a.69.69,0,0,0,.39-.71V3.12c-6,3.47-12,6.94-18.06,10.47a3.81,3.81,0,0,1,.39.26C11.16,16,15,18.28,18.93,20.47c.77.45,1.54.84,2.31,1.35a1.08,1.08,0,0,1,.39,1.54,1.09,1.09,0,0,1-1.54.45l-.39-.19C15.27,21.11,10.84,18.54,6.4,16a6,6,0,0,0-.64-.32C5.57,22.52,5.57,29.4,5.57,36.4Zm1.09,2.06c6,3.47,12.08,6.94,18.12,10.47V32.48a1.19,1.19,0,0,1,1-1.22A1.13,1.13,0,0,1,27,32a2.41,2.41,0,0,1,.06.71V48.93c6.1-3.53,12.08-7,18.12-10.47l-.13-.13c-6.3-3.6-12.53-7.26-18.83-10.86a.7.7,0,0,0-.71.06c-2.06,1.16-4,2.31-6.1,3.47C15.27,33.51,11,36,6.66,38.46Z" style="fill:#d41f3e"/></svg>