<svg id="Слой_1" data-name="Слой 1" xmlns="http://www.w3.org/2000/svg" viewBox="0 0 52 52"><title>thermometer</title><path d="M35,6.35h8a1.78,1.78,0,0,0,1.71-1.71,1.72,1.72,0,0,0-1.71-1.71H35a1.72,1.72,0,0,0-1.71,1.71A1.77,1.77,0,0,0,35,6.35Z" style="fill:#d41f3d;fill-rule:evenodd"/><path d="M42.92,10.91H35a1.67,1.67,0,1,0,0,3.34h8a1.67,1.67,0,1,0,0-3.34Z" style="fill:#d41f3d;fill-rule:evenodd"/><path d="M42.92,18.72H35a1.75,1.75,0,0,0,0,3.5h8a1.75,1.75,0,0,0,0-3.5Z" style="fill:#d41f3d;fill-rule:evenodd"/><path d="M43,26.12H35.28a1.71,1.71,0,1,0,0,3.42H43a1.71,1.71,0,0,0,0-3.42Z" style="fill:#d41f3d;fill-rule:evenodd"/><path d="M29.58,31.09V9.6a9.56,9.56,0,1,0-19.13,0V31.09a12.37,12.37,0,0,0-3.09,8.3,12.65,12.65,0,0,0,25.31,0A12.34,12.34,0,0,0,29.58,31.09ZM20,48.58A9.27,9.27,0,0,1,13.3,33a1.66,1.66,0,0,0,.49-1.22V9.6a6.18,6.18,0,1,1,12.37,0V31.74A1.64,1.64,0,0,0,26.65,33,9.21,9.21,0,0,1,20,48.58Z" style="fill:#d41f3d;fill-rule:evenodd"/><path d="M22.91,33.94,23,18.72a2.85,2.85,0,1,0-5.7,0l-.16,15.22A6.09,6.09,0,0,0,14,39.22a6,6,0,1,0,12,0,6.09,6.09,0,0,0-3.09-5.29Z" style="fill:#d41f3d;fill-rule:evenodd"/></svg>