<svg id="Слой_1" data-name="Слой 1" xmlns="http://www.w3.org/2000/svg" viewBox="0 0 52 52"><title>umbrella</title><path d="M51.43,30.46A25.36,25.36,0,0,0,27.52,5.4V4.31a1.42,1.42,0,1,0-2.84,0V5.4A25.36,25.36,0,0,0,.79,29.88a7.28,7.28,0,0,0-.29,2H3a4.82,4.82,0,0,1,.16-1.2H3.3c0-.13,0-.26,0-.39a4.79,4.79,0,0,1,9.3,1.59h2.54a4.79,4.79,0,0,1,9.53-.68V44a2.25,2.25,0,0,1-4.5,0,1.42,1.42,0,1,0-2.84,0,5.09,5.09,0,0,0,10.19,0V30.69h-.1a4.79,4.79,0,0,1,9.43,1.2h2.53c0-.16,0-.32,0-.47h0a4.79,4.79,0,0,1,9.52-.75v0h0a4.74,4.74,0,0,1,.06.73H51.5A7.14,7.14,0,0,0,51.43,30.46Z" style="fill:#d41f3d"/></svg>