<svg id="Слой_1" data-name="Слой 1" xmlns="http://www.w3.org/2000/svg" viewBox="0 0 52 52"><title>your-logo</title><path d="M26,52a4.92,4.92,0,0,1-3.46-1.45L1.45,29.45a4.86,4.86,0,0,1,0-6.92L22.54,1.43a4.94,4.94,0,0,1,6.92,0L50.55,22.52a4.86,4.86,0,0,1,0,6.92L29.46,50.54A4.66,4.66,0,0,1,26,52ZM26,3.13a2,2,0,0,0-1.26.5L3.65,24.73A1.76,1.76,0,0,0,3.15,26a1.87,1.87,0,0,0,.5,1.26L24.74,48.33a1.71,1.71,0,0,0,2.46,0L48.29,27.24a1.76,1.76,0,0,0,.5-1.26,1.87,1.87,0,0,0-.5-1.26l-21-21.09A2,2,0,0,0,26,3.13Z" style="fill:#d41f3e"/><path d="M18.26,18.93c.06-.19.25-.25.5-.31a1.55,1.55,0,0,1,.76.06c.25.06.38.19.38.25-.19.44-.5,1.7-1.07,3.78a22.64,22.64,0,0,1-1.32,4c.13.19.38.38.63.69a7,7,0,0,0,.57.63l.5.5a3.46,3.46,0,0,0,.57.44,3.71,3.71,0,0,1,.5.25,1.86,1.86,0,0,0,.63.13,2.24,2.24,0,0,0,.63-.13c.13,0,.19.06.31.19a1.19,1.19,0,0,1,.13.5.71.71,0,0,1-.19.5,3.2,3.2,0,0,1-1.07.19,4.28,4.28,0,0,1-.94-.13,5.2,5.2,0,0,1-.82-.44l-.76-.57-.69-.69a6.67,6.67,0,0,1-.63-.76.06.06,0,0,0-.06-.06l-.06-.06-.06-.06-.06-.06a4.85,4.85,0,0,1-.82.57,2.51,2.51,0,0,1-1.07.19,2,2,0,0,1-1.45-.44,1.22,1.22,0,0,1-.44-1.2,1.35,1.35,0,0,1,.63-1,2.39,2.39,0,0,1,1.38-.38,3,3,0,0,1,1.45.44c.25-.76.57-1.83.94-3.15s.57-2.2.69-2.58a3.31,3.31,0,0,1-.88.76,4.46,4.46,0,0,1-1,.44c-.31.13-.57.25-.82.38a1,1,0,0,0-.44.57.69.69,0,0,0,.5.94c.06.06.13.19.06.44s-.13.31-.31.38a2,2,0,0,1-1.45-.5,1.43,1.43,0,0,1-.31-1.32A1.57,1.57,0,0,1,14,21.2a4.54,4.54,0,0,1,1.26-.57,12.25,12.25,0,0,0,1.57-.57A8.91,8.91,0,0,0,18.26,18.93Zm-4.09,7.68a.69.69,0,0,0,0,.5.61.61,0,0,0,.57.25,1.23,1.23,0,0,0,1.07-.69,1.65,1.65,0,0,0-.94-.44A.72.72,0,0,0,14.16,26.61Z" style="fill:#d41f3e"/><path d="M22.79,22.27a2.21,2.21,0,0,1,1.45.44,1.59,1.59,0,0,1,.63,1.07,3.8,3.8,0,0,1-.06,1.45,4.53,4.53,0,0,1-.63,1.51c.88.06,1.57-.44,2.08-1.64a.23.23,0,0,1,.19-.06.48.48,0,0,1,.25.13c.06.06.13.13.06.19-.76,1.57-1.76,2.27-3.08,2a3.23,3.23,0,0,1-2.33.94,2.13,2.13,0,0,1-1.7-.69,2.53,2.53,0,0,1-.31-2.14,4,4,0,0,1,1.26-2.27A3.59,3.59,0,0,1,22.79,22.27Zm-.19,1a1.4,1.4,0,0,0-1.07.69,3.23,3.23,0,0,0-.63,1.51c-.25,1.26,0,1.89.63,1.89a1.2,1.2,0,0,0,.94-.5A.57.57,0,0,1,23,26a6.19,6.19,0,0,0,.31-1,4.94,4.94,0,0,0,.13-.88.94.94,0,0,0-.19-.63A1.06,1.06,0,0,0,22.6,23.28Z" style="fill:#d41f3e"/><path d="M28.08,22.9a3.72,3.72,0,0,1,1.51-.57,3.42,3.42,0,0,1,1.57.13,3.59,3.59,0,0,1,1.38.69c.06.13,0,.25-.19.5s-.38.31-.44.25A2.6,2.6,0,0,0,30,23.34a2.24,2.24,0,0,0-1.2.5,3.62,3.62,0,0,0-.94,1.2,2.64,2.64,0,0,0-.38,1.32,1.15,1.15,0,0,0,.19.88c.25.19.5.13.88-.19a5.75,5.75,0,0,0,1.07-1.45A7.34,7.34,0,0,0,30.28,24c.13-.13.31-.19.69-.06s.57.19.57.38c-.13.44-.31,1.07-.5,1.89s-.38,1.45-.5,2a5.34,5.34,0,0,0,2.58-3,.12.12,0,0,1,.19,0,.48.48,0,0,1,.25.13c.06.06.13.13.06.19a10.71,10.71,0,0,1-1.45,2.33,6,6,0,0,1-1.89,1.32,7.89,7.89,0,0,1-1.07,2.58,2,2,0,0,1-1.7.76,1.54,1.54,0,0,1-1.13-.38A1.23,1.23,0,0,1,26.06,31a1.32,1.32,0,0,1,.25-.69,4.07,4.07,0,0,1,.5-.57,3.3,3.3,0,0,1,.69-.44,6.56,6.56,0,0,1,.76-.31,7.06,7.06,0,0,0,.82-.31c.19-.57.38-1.2.63-2-.63,1.13-1.32,1.7-2.2,1.7a1.37,1.37,0,0,1-1.32-.63A2.35,2.35,0,0,1,26,26.17a4.93,4.93,0,0,1,.82-1.89A3,3,0,0,1,28.08,22.9Zm.82,6.55a2.54,2.54,0,0,0-1.45,1.13c-.19.31-.13.57.06.69s.44.06.69-.25a2.18,2.18,0,0,0,.44-.76,4,4,0,0,0,.13-.44A2.48,2.48,0,0,0,28.9,29.45Z" style="fill:#d41f3e"/><path d="M36.58,22.27a2.21,2.21,0,0,1,1.45.44,1.59,1.59,0,0,1,.63,1.07,3.8,3.8,0,0,1-.06,1.45A4.53,4.53,0,0,1,38,26.74c.88.06,1.57-.44,2.08-1.64a.23.23,0,0,1,.19-.06.48.48,0,0,1,.25.13c.06.06.13.13.06.19-.76,1.57-1.76,2.27-3.08,2a3.23,3.23,0,0,1-2.33.94,2.13,2.13,0,0,1-1.7-.69,2.53,2.53,0,0,1-.31-2.14,4,4,0,0,1,1.26-2.27A3.59,3.59,0,0,1,36.58,22.27Zm-.19,1a1.4,1.4,0,0,0-1.07.69,3.23,3.23,0,0,0-.63,1.51c-.25,1.26,0,1.89.63,1.89a1.2,1.2,0,0,0,.94-.5.57.57,0,0,1,.5-.88,6.19,6.19,0,0,0,.31-1,4.94,4.94,0,0,0,.13-.88.94.94,0,0,0-.19-.63A1.06,1.06,0,0,0,36.39,23.28Z" style="fill:#d41f3e"/></svg>